<mxfile host="Electron" agent="Mozilla/5.0 (Windows NT 10.0; Win64; x64) AppleWebKit/537.36 (KHTML, like Gecko) draw.io/24.7.8 Chrome/128.0.6613.36 Electron/32.0.1 Safari/537.36" version="24.7.8">
  <diagram id="-xUIz07HcunoWoDJoD9e" name="Page-1">
    <mxGraphModel dx="2712" dy="1915" grid="1" gridSize="10" guides="1" tooltips="1" connect="1" arrows="1" fold="1" page="0" pageScale="1" pageWidth="850" pageHeight="1100" background="none" math="0" shadow="0">
      <root>
        <mxCell id="0" />
        <mxCell id="1" parent="0" />
        <mxCell id="node4" value="&lt;p style=&quot;margin:0px;margin-top:4px;text-align:center;&quot;&gt;&lt;b&gt;AdminIndexController&lt;/b&gt;&lt;/p&gt;&lt;hr size=&quot;1&quot;/&gt;&lt;p style=&quot;margin:0 0 0 4px;line-height:1.6;&quot;&gt;+ AdminIndexController(AdminIndexServiceImpl): &lt;/p&gt;&lt;hr size=&quot;1&quot;/&gt;&lt;p style=&quot;margin:0 0 0 4px;line-height:1.6;&quot;&gt;- adminIndexService: AdminIndexServiceImpl&lt;/p&gt;&lt;hr size=&quot;1&quot;/&gt;&lt;p style=&quot;margin:0 0 0 4px;line-height:1.6;&quot;&gt;+ index(Model): String&lt;/p&gt;" style="verticalAlign=top;align=left;overflow=fill;fontSize=14;fontFamily=Helvetica;html=1;rounded=0;shadow=0;comic=0;labelBackgroundColor=none;strokeWidth=1;fillColor=#dae8fc;strokeColor=#6c8ebf;" parent="1" vertex="1">
          <mxGeometry x="-360" y="-160" width="600" height="139" as="geometry" />
        </mxCell>
        <mxCell id="node6" value="&lt;p style=&quot;margin:0px;margin-top:4px;text-align:center;&quot;&gt;&lt;b&gt;EditPagesController&lt;/b&gt;&lt;/p&gt;&lt;hr size=&quot;1&quot;/&gt;&lt;p style=&quot;margin:0 0 0 4px;line-height:1.6;&quot;&gt;+ EditPagesController(MainPageService, ContactService, EditPageService): &lt;/p&gt;&lt;hr size=&quot;1&quot;/&gt;&lt;p style=&quot;margin:0 0 0 4px;line-height:1.6;&quot;&gt;- PATH_TO_EDIT: String&lt;br/&gt;- editPageService: EditPageService&lt;br/&gt;- contactService: ContactService&lt;br/&gt;- mainPageService: MainPageService&lt;/p&gt;&lt;hr size=&quot;1&quot;/&gt;&lt;p style=&quot;margin:0 0 0 4px;line-height:1.6;&quot;&gt;+ editAdvertising(Model): String&lt;br/&gt;+ updateAdvertising(EditPageDto, String): ResponseEntity&amp;lt;HttpStatus&amp;gt;&lt;br/&gt;+ updateChildRoom(EditPageDto, String): ResponseEntity&amp;lt;HttpStatus&amp;gt;&lt;br/&gt;+ updateAbout(EditPageDto, String): ResponseEntity&amp;lt;HttpStatus&amp;gt;&lt;br/&gt;+ editChildRoom(Model): String&lt;br/&gt;+ editContacts(Model): String&lt;br/&gt;+ saveFile(MultipartFile, String, String): ResponseEntity&amp;lt;String&amp;gt;&lt;br/&gt;+ editAbout(Model): String&lt;br/&gt;+ editCafeBar(Model): String&lt;br/&gt;+ updateCafeBar(EditPageDto, String): ResponseEntity&amp;lt;HttpStatus&amp;gt;&lt;br/&gt;+ editMain(Model): String&lt;br/&gt;+ editVip(Model): String&lt;br/&gt;+ updateMain(MainPageInfoDto): ResponseEntity&amp;lt;HttpStatus&amp;gt;&lt;br/&gt;+ updateVipRoom(EditPageDto, String): ResponseEntity&amp;lt;HttpStatus&amp;gt;&lt;br/&gt;+ updateContacts(List&amp;lt;ContactDto&amp;gt;): ResponseEntity&amp;lt;HttpStatus&amp;gt;&lt;/p&gt;" style="verticalAlign=top;align=left;overflow=fill;fontSize=14;fontFamily=Helvetica;html=1;rounded=0;shadow=0;comic=0;labelBackgroundColor=none;strokeWidth=1;fillColor=#dae8fc;strokeColor=#6c8ebf;" parent="1" vertex="1">
          <mxGeometry x="-360" y="200" width="600" height="530" as="geometry" />
        </mxCell>
        <mxCell id="node5" value="&lt;p style=&quot;margin:0px;margin-top:4px;text-align:center;&quot;&gt;&lt;b&gt;MainPageController&lt;/b&gt;&lt;/p&gt;&lt;hr size=&quot;1&quot;/&gt;&lt;p style=&quot;margin:0 0 0 4px;line-height:1.6;&quot;&gt;+ MainPageController(MainPageService): &lt;/p&gt;&lt;hr size=&quot;1&quot;/&gt;&lt;p style=&quot;margin:0 0 0 4px;line-height:1.6;&quot;&gt;- mainPageService: MainPageService&lt;/p&gt;&lt;hr size=&quot;1&quot;/&gt;&lt;p style=&quot;margin:0 0 0 4px;line-height:1.6;&quot;&gt;+ saveNewFile(MultipartFile, String, String): ResponseEntity&amp;lt;String&amp;gt;&lt;br/&gt;+ updatePromotions(MainPageBanner): ResponseEntity&amp;lt;HttpStatus&amp;gt;&lt;br/&gt;+ banners(Model): String&lt;br/&gt;+ updateBanners(List&amp;lt;MainPageBanner&amp;gt;): ResponseEntity&amp;lt;HttpStatus&amp;gt;&lt;br/&gt;+ updatePromotions(List&amp;lt;MainPageBanner&amp;gt;): ResponseEntity&amp;lt;HttpStatus&amp;gt;&lt;/p&gt;" style="verticalAlign=top;align=left;overflow=fill;fontSize=14;fontFamily=Helvetica;html=1;rounded=0;shadow=0;comic=0;labelBackgroundColor=none;strokeWidth=1;fillColor=#dae8fc;strokeColor=#6c8ebf;" parent="1" vertex="1">
          <mxGeometry x="-360" y="960" width="600" height="230" as="geometry" />
        </mxCell>
        <mxCell id="node2" value="&lt;p style=&quot;margin:0px;margin-top:4px;text-align:center;&quot;&gt;&lt;b&gt;MovieController&lt;/b&gt;&lt;/p&gt;&lt;hr size=&quot;1&quot;/&gt;&lt;p style=&quot;margin:0 0 0 4px;line-height:1.6;&quot;&gt;+ MovieController(MovieService): &lt;/p&gt;&lt;hr size=&quot;1&quot;/&gt;&lt;p style=&quot;margin:0 0 0 4px;line-height:1.6;&quot;&gt;- movieService: MovieService&lt;/p&gt;&lt;hr size=&quot;1&quot;/&gt;&lt;p style=&quot;margin:0 0 0 4px;line-height:1.6;&quot;&gt;+ showFilm(int, Model): String&lt;br/&gt;+ saveFile(MultipartFile, String, String): ResponseEntity&amp;lt;String&amp;gt;&lt;br/&gt;+ films(Model): String&lt;br/&gt;+ saveMovie(MovieDto, String): ResponseEntity&amp;lt;HttpStatus&amp;gt;&lt;/p&gt;" style="verticalAlign=top;align=left;overflow=fill;fontSize=14;fontFamily=Helvetica;html=1;rounded=0;shadow=0;comic=0;labelBackgroundColor=none;strokeWidth=1;fillColor=#dae8fc;strokeColor=#6c8ebf;" parent="1" vertex="1">
          <mxGeometry x="-350" y="1400" width="590" height="215" as="geometry" />
        </mxCell>
        <mxCell id="node8" value="&lt;p style=&quot;margin:0px;margin-top:4px;text-align:center;&quot;&gt;&lt;b&gt;NewsController&lt;/b&gt;&lt;/p&gt;&lt;hr size=&quot;1&quot;/&gt;&lt;p style=&quot;margin:0 0 0 4px;line-height:1.6;&quot;&gt;+ NewsController(NewsService): &lt;/p&gt;&lt;hr size=&quot;1&quot;/&gt;&lt;p style=&quot;margin:0 0 0 4px;line-height:1.6;&quot;&gt;- newsService: NewsService&lt;br/&gt;- NEWS_PATH: String&lt;/p&gt;&lt;hr size=&quot;1&quot;/&gt;&lt;p style=&quot;margin:0 0 0 4px;line-height:1.6;&quot;&gt;+ getNews(Model): String&lt;br/&gt;+ saveNews(NewsDto): ResponseEntity&amp;lt;HttpStatus&amp;gt;&lt;br/&gt;+ deleteNews(long): ResponseEntity&amp;lt;HttpStatus&amp;gt;&lt;br/&gt;+ saveFile(MultipartFile, String, String): ResponseEntity&amp;lt;String&amp;gt;&lt;br/&gt;+ showNews(long, Model): String&lt;/p&gt;" style="verticalAlign=top;align=left;overflow=fill;fontSize=14;fontFamily=Helvetica;html=1;rounded=0;shadow=0;comic=0;labelBackgroundColor=none;strokeWidth=1;fillColor=#dae8fc;strokeColor=#6c8ebf;" parent="1" vertex="1">
          <mxGeometry x="-360" y="1800" width="600" height="251" as="geometry" />
        </mxCell>
        <mxCell id="node7" value="&lt;p style=&quot;margin:0px;margin-top:4px;text-align:center;&quot;&gt;&lt;b&gt;PromotionController&lt;/b&gt;&lt;/p&gt;&lt;hr size=&quot;1&quot;/&gt;&lt;p style=&quot;margin:0 0 0 4px;line-height:1.6;&quot;&gt;+ PromotionController(PromotionService): &lt;/p&gt;&lt;hr size=&quot;1&quot;/&gt;&lt;p style=&quot;margin:0 0 0 4px;line-height:1.6;&quot;&gt;- promotionService: PromotionService&lt;br/&gt;- PATH_TO_PROMOTIONS: String&lt;/p&gt;&lt;hr size=&quot;1&quot;/&gt;&lt;p style=&quot;margin:0 0 0 4px;line-height:1.6;&quot;&gt;+ savePromotion(PromotionDto): ResponseEntity&amp;lt;HttpStatus&amp;gt;&lt;br/&gt;+ showPromotion(long, Model): String&lt;br/&gt;+ promotions(Model): String&lt;br/&gt;+ deletePromotion(long): ResponseEntity&amp;lt;HttpStatus&amp;gt;&lt;br/&gt;+ savePicture(MultipartFile, String, String): ResponseEntity&amp;lt;String&amp;gt;&lt;/p&gt;" style="verticalAlign=top;align=left;overflow=fill;fontSize=14;fontFamily=Helvetica;html=1;rounded=0;shadow=0;comic=0;labelBackgroundColor=none;strokeWidth=1;fillColor=#dae8fc;strokeColor=#6c8ebf;" parent="1" vertex="1">
          <mxGeometry x="-360" y="2280" width="600" height="259" as="geometry" />
        </mxCell>
        <mxCell id="node3" value="&lt;p style=&quot;margin:0px;margin-top:4px;text-align:center;&quot;&gt;&lt;b&gt;SendingController&lt;/b&gt;&lt;/p&gt;&lt;hr size=&quot;1&quot;/&gt;&lt;p style=&quot;margin:0 0 0 4px;line-height:1.6;&quot;&gt;+ SendingController(UserService): &lt;/p&gt;&lt;hr size=&quot;1&quot;/&gt;&lt;p style=&quot;margin:0 0 0 4px;line-height:1.6;&quot;&gt;- userService: UserService&lt;br/&gt;- logger: Logger&lt;/p&gt;&lt;hr size=&quot;1&quot;/&gt;&lt;p style=&quot;margin:0 0 0 4px;line-height:1.6;&quot;&gt;+ index(Model): String&lt;br/&gt;+ pick(int, Model): String&lt;br/&gt;+ save(String, String, byte[]): ResponseEntity&amp;lt;String&amp;gt;&lt;/p&gt;" style="verticalAlign=top;align=left;overflow=fill;fontSize=14;fontFamily=Helvetica;html=1;rounded=0;shadow=0;comic=0;labelBackgroundColor=none;strokeWidth=1;fillColor=#dae8fc;strokeColor=#6c8ebf;" parent="1" vertex="1">
          <mxGeometry x="-360" y="2760" width="600" height="211" as="geometry" />
        </mxCell>
        <mxCell id="node0" value="&lt;p style=&quot;margin:0px;margin-top:4px;text-align:center;&quot;&gt;&lt;b&gt;TheaterController&lt;/b&gt;&lt;/p&gt;&lt;hr size=&quot;1&quot;/&gt;&lt;p style=&quot;margin:0 0 0 4px;line-height:1.6;&quot;&gt;+ TheaterController(TheaterService, AuditoriumService): &lt;/p&gt;&lt;hr size=&quot;1&quot;/&gt;&lt;p style=&quot;margin:0 0 0 4px;line-height:1.6;&quot;&gt;- theaterService: TheaterService&lt;br/&gt;- auditoriumService: AuditoriumService&lt;br/&gt;- PATH_TO_THEATERS: String&lt;/p&gt;&lt;hr size=&quot;1&quot;/&gt;&lt;p style=&quot;margin:0 0 0 4px;line-height:1.6;&quot;&gt;+ deleteTheaterById(long): String&lt;br/&gt;+ showTheater(long, Model): String&lt;br/&gt;+ theaters(Model): String&lt;br/&gt;+ saveAuditorium(AuditoriumDto, String): ResponseEntity&amp;lt;HttpStatus&amp;gt;&lt;br/&gt;+ deleteAuditorium(long): ResponseEntity&amp;lt;HttpStatus&amp;gt;&lt;br/&gt;+ saveTheater(TheaterDto, String): String&lt;br/&gt;+ saveAuditorium(MultipartFile, String, String): ResponseEntity&amp;lt;String&amp;gt;&lt;br/&gt;+ showAuditorium(long, long, Model): String&lt;/p&gt;" style="verticalAlign=top;align=left;overflow=fill;fontSize=14;fontFamily=Helvetica;html=1;rounded=0;shadow=0;comic=0;labelBackgroundColor=none;strokeWidth=1;fillColor=#dae8fc;strokeColor=#6c8ebf;" parent="1" vertex="1">
          <mxGeometry x="-360" y="3200" width="600" height="344" as="geometry" />
        </mxCell>
        <mxCell id="node1" value="&lt;p style=&quot;margin:0px;margin-top:4px;text-align:center;&quot;&gt;&lt;b&gt;UserController&lt;/b&gt;&lt;/p&gt;&lt;hr size=&quot;1&quot;/&gt;&lt;p style=&quot;margin:0 0 0 4px;line-height:1.6;&quot;&gt;+ UserController(UserService): &lt;/p&gt;&lt;hr size=&quot;1&quot;/&gt;&lt;p style=&quot;margin:0 0 0 4px;line-height:1.6;&quot;&gt;- userService: UserService&lt;/p&gt;&lt;hr size=&quot;1&quot;/&gt;&lt;p style=&quot;margin:0 0 0 4px;line-height:1.6;&quot;&gt;+ showUser(long, Model): String&lt;br/&gt;+ deleteUser(long): ResponseEntity&amp;lt;HttpStatus&amp;gt;&lt;br/&gt;+ getUserPage(Integer, Integer, Model): String&lt;br/&gt;+ saveUser(UserDto): ResponseEntity&amp;lt;HttpStatus&amp;gt;&lt;/p&gt;" style="verticalAlign=top;align=left;overflow=fill;fontSize=14;fontFamily=Helvetica;html=1;rounded=0;shadow=0;comic=0;labelBackgroundColor=none;strokeWidth=1;fillColor=#dae8fc;strokeColor=#6c8ebf;" parent="1" vertex="1">
          <mxGeometry x="-360" y="3760" width="600" height="213" as="geometry" />
        </mxCell>
        <mxCell id="w6Y9L4YbT9dWOtbwtHE6-1" value="" style="endArrow=none;html=1;rounded=0;strokeWidth=4;" parent="1" edge="1">
          <mxGeometry width="50" height="50" relative="1" as="geometry">
            <mxPoint x="-680" y="8960" as="sourcePoint" />
            <mxPoint x="-680" y="-440" as="targetPoint" />
          </mxGeometry>
        </mxCell>
        <mxCell id="w6Y9L4YbT9dWOtbwtHE6-2" value="Controller" style="text;html=1;align=center;verticalAlign=middle;resizable=0;points=[];autosize=1;strokeColor=none;fillColor=none;fontSize=64;" parent="1" vertex="1">
          <mxGeometry x="-205" y="-650" width="300" height="90" as="geometry" />
        </mxCell>
        <mxCell id="w6Y9L4YbT9dWOtbwtHE6-3" value="" style="endArrow=none;html=1;rounded=0;strokeWidth=4;" parent="1" edge="1">
          <mxGeometry width="50" height="50" relative="1" as="geometry">
            <mxPoint x="560" y="10400" as="sourcePoint" />
            <mxPoint x="560" y="-440" as="targetPoint" />
          </mxGeometry>
        </mxCell>
        <mxCell id="w6Y9L4YbT9dWOtbwtHE6-4" value="&lt;p style=&quot;margin:0px;margin-top:4px;text-align:center;&quot;&gt;&lt;b&gt;AboutController&lt;/b&gt;&lt;/p&gt;&lt;hr size=&quot;1&quot;/&gt;&lt;p style=&quot;margin:0 0 0 4px;line-height:1.6;&quot;&gt;+ AboutController(TheaterService, NewsService, ContactService): &lt;/p&gt;&lt;hr size=&quot;1&quot;/&gt;&lt;p style=&quot;margin:0 0 0 4px;line-height:1.6;&quot;&gt;- theaterService: TheaterService&lt;br/&gt;- newsService: NewsService&lt;br/&gt;- contactService: ContactService&lt;/p&gt;&lt;hr size=&quot;1&quot;/&gt;&lt;p style=&quot;margin:0 0 0 4px;line-height:1.6;&quot;&gt;+ news(Model): String&lt;br/&gt;+ advert(): String&lt;br/&gt;+ about(Model): String&lt;br/&gt;+ vip(): String&lt;br/&gt;+ contacts(Model): String&lt;br/&gt;+ mobApps(): String&lt;br/&gt;+ childRoom(): String&lt;br/&gt;+ cafeBar(): String&lt;/p&gt;" style="verticalAlign=top;align=left;overflow=fill;fontSize=14;fontFamily=Helvetica;html=1;rounded=0;shadow=0;comic=0;labelBackgroundColor=none;strokeWidth=1;fillColor=#dae8fc;strokeColor=#6c8ebf;" parent="1" vertex="1">
          <mxGeometry x="-360" y="4400" width="600" height="340" as="geometry" />
        </mxCell>
        <mxCell id="w6Y9L4YbT9dWOtbwtHE6-5" value="&lt;p style=&quot;margin:0px;margin-top:4px;text-align:center;&quot;&gt;&lt;b&gt;BillboardController&lt;/b&gt;&lt;/p&gt;&lt;hr size=&quot;1&quot;/&gt;&lt;p style=&quot;margin:0 0 0 4px;line-height:1.6;&quot;&gt;+ BillboardController(MovieService): &lt;/p&gt;&lt;hr size=&quot;1&quot;/&gt;&lt;p style=&quot;margin:0 0 0 4px;line-height:1.6;&quot;&gt;- movieService: MovieService&lt;/p&gt;&lt;hr size=&quot;1&quot;/&gt;&lt;p style=&quot;margin:0 0 0 4px;line-height:1.6;&quot;&gt;+ getBillboard(Model): String&lt;/p&gt;" style="verticalAlign=top;align=left;overflow=fill;fontSize=14;fontFamily=Helvetica;html=1;rounded=0;shadow=0;comic=0;labelBackgroundColor=none;strokeWidth=1;fillColor=#dae8fc;strokeColor=#6c8ebf;" parent="1" vertex="1">
          <mxGeometry x="-360" y="5000" width="600" height="140" as="geometry" />
        </mxCell>
        <mxCell id="w6Y9L4YbT9dWOtbwtHE6-6" value="&lt;p style=&quot;margin:0px;margin-top:4px;text-align:center;&quot;&gt;&lt;b&gt;CabinetController&lt;/b&gt;&lt;/p&gt;&lt;hr size=&quot;1&quot;/&gt;&lt;p style=&quot;margin:0 0 0 4px;line-height:1.6;&quot;&gt;+ CabinetController(UserService): &lt;/p&gt;&lt;hr size=&quot;1&quot;/&gt;&lt;p style=&quot;margin:0 0 0 4px;line-height:1.6;&quot;&gt;- userService: UserService&lt;/p&gt;&lt;hr size=&quot;1&quot;/&gt;&lt;p style=&quot;margin:0 0 0 4px;line-height:1.6;&quot;&gt;+ getCabinet(Model): String&lt;br/&gt;+ postCabinet(UserDto, String): ResponseEntity&amp;lt;HttpStatus&amp;gt;&lt;/p&gt;" style="verticalAlign=top;align=left;overflow=fill;fontSize=14;fontFamily=Helvetica;html=1;rounded=0;shadow=0;comic=0;labelBackgroundColor=none;strokeWidth=1;fillColor=#dae8fc;strokeColor=#6c8ebf;" parent="1" vertex="1">
          <mxGeometry x="-360" y="5360" width="600" height="160" as="geometry" />
        </mxCell>
        <mxCell id="_80G5sTWAN3Qly69pA7i-1" value="&lt;p style=&quot;margin:0px;margin-top:4px;text-align:center;&quot;&gt;&lt;b&gt;ClientIndexController&lt;/b&gt;&lt;/p&gt;&lt;hr size=&quot;1&quot;/&gt;&lt;p style=&quot;margin:0 0 0 4px;line-height:1.6;&quot;&gt;+ ClientIndexController(MovieService, MainPageService): &lt;/p&gt;&lt;hr size=&quot;1&quot;/&gt;&lt;p style=&quot;margin:0 0 0 4px;line-height:1.6;&quot;&gt;- movieService: MovieService&lt;br/&gt;- mainPageService: MainPageService&lt;/p&gt;&lt;hr size=&quot;1&quot;/&gt;&lt;p style=&quot;margin:0 0 0 4px;line-height:1.6;&quot;&gt;+ index(Model): String&lt;/p&gt;" style="verticalAlign=top;align=left;overflow=fill;fontSize=14;fontFamily=Helvetica;html=1;rounded=0;shadow=0;comic=0;labelBackgroundColor=none;strokeWidth=1;fillColor=#dae8fc;strokeColor=#6c8ebf;" parent="1" vertex="1">
          <mxGeometry x="-360" y="5760" width="600" height="160" as="geometry" />
        </mxCell>
        <mxCell id="_80G5sTWAN3Qly69pA7i-2" value="&lt;p style=&quot;margin:0px;margin-top:4px;text-align:center;&quot;&gt;&lt;b&gt;LoginController&lt;/b&gt;&lt;/p&gt;&lt;hr size=&quot;1&quot;/&gt;&lt;p style=&quot;margin:0 0 0 4px;line-height:1.6;&quot;&gt;+ LoginController(): &lt;/p&gt;&lt;hr size=&quot;1&quot;/&gt;&lt;p style=&quot;margin:0 0 0 4px;line-height:1.6;&quot;&gt;+ login(): String&lt;/p&gt;" style="verticalAlign=top;align=left;overflow=fill;fontSize=14;fontFamily=Helvetica;html=1;rounded=0;shadow=0;comic=0;labelBackgroundColor=none;strokeWidth=1;fillColor=#dae8fc;strokeColor=#6c8ebf;" parent="1" vertex="1">
          <mxGeometry x="-360" y="6160" width="600" height="100" as="geometry" />
        </mxCell>
        <mxCell id="_80G5sTWAN3Qly69pA7i-3" value="&lt;p style=&quot;margin:0px;margin-top:4px;text-align:center;&quot;&gt;&lt;b&gt;MovieCardController&lt;/b&gt;&lt;/p&gt;&lt;hr size=&quot;1&quot;/&gt;&lt;p style=&quot;margin:0 0 0 4px;line-height:1.6;&quot;&gt;+ MovieCardController(MovieService): &lt;/p&gt;&lt;hr size=&quot;1&quot;/&gt;&lt;p style=&quot;margin:0 0 0 4px;line-height:1.6;&quot;&gt;- movieService: MovieService&lt;/p&gt;&lt;hr size=&quot;1&quot;/&gt;&lt;p style=&quot;margin:0 0 0 4px;line-height:1.6;&quot;&gt;+ showFilmCard(int, Model): String&lt;/p&gt;" style="verticalAlign=top;align=left;overflow=fill;fontSize=14;fontFamily=Helvetica;html=1;rounded=0;shadow=0;comic=0;labelBackgroundColor=none;strokeWidth=1;fillColor=#dae8fc;strokeColor=#6c8ebf;" parent="1" vertex="1">
          <mxGeometry x="-360" y="6480" width="600" height="140" as="geometry" />
        </mxCell>
        <mxCell id="_80G5sTWAN3Qly69pA7i-4" value="&lt;p style=&quot;margin:0px;margin-top:4px;text-align:center;&quot;&gt;&lt;b&gt;PromotionsController&lt;/b&gt;&lt;/p&gt;&lt;hr size=&quot;1&quot;/&gt;&lt;p style=&quot;margin:0 0 0 4px;line-height:1.6;&quot;&gt;+ PromotionsController(PromotionService): &lt;/p&gt;&lt;hr size=&quot;1&quot;/&gt;&lt;p style=&quot;margin:0 0 0 4px;line-height:1.6;&quot;&gt;- promotionService: PromotionService&lt;/p&gt;&lt;hr size=&quot;1&quot;/&gt;&lt;p style=&quot;margin:0 0 0 4px;line-height:1.6;&quot;&gt;+ promotion(Model, int): String&lt;br/&gt;+ promotions(Model): String&lt;/p&gt;" style="verticalAlign=top;align=left;overflow=fill;fontSize=14;fontFamily=Helvetica;html=1;rounded=0;shadow=0;comic=0;labelBackgroundColor=none;strokeWidth=1;fillColor=#dae8fc;strokeColor=#6c8ebf;" parent="1" vertex="1">
          <mxGeometry x="-360" y="6880" width="600" height="160" as="geometry" />
        </mxCell>
        <mxCell id="_80G5sTWAN3Qly69pA7i-5" value="&lt;p style=&quot;margin:0px;margin-top:4px;text-align:center;&quot;&gt;&lt;b&gt;RegistrationController&lt;/b&gt;&lt;/p&gt;&lt;hr size=&quot;1&quot;/&gt;&lt;p style=&quot;margin:0 0 0 4px;line-height:1.6;&quot;&gt;+ RegistrationController(UserService): &lt;/p&gt;&lt;hr size=&quot;1&quot;/&gt;&lt;p style=&quot;margin:0 0 0 4px;line-height:1.6;&quot;&gt;- userService: UserService&lt;/p&gt;&lt;hr size=&quot;1&quot;/&gt;&lt;p style=&quot;margin:0 0 0 4px;line-height:1.6;&quot;&gt;+ register(String, String, String): ResponseEntity&amp;lt;HttpStatus&amp;gt;&lt;br/&gt;+ register(): String&lt;/p&gt;" style="verticalAlign=top;align=left;overflow=fill;fontSize=14;fontFamily=Helvetica;html=1;rounded=0;shadow=0;comic=0;labelBackgroundColor=none;strokeWidth=1;fillColor=#dae8fc;strokeColor=#6c8ebf;" parent="1" vertex="1">
          <mxGeometry x="-360" y="7280" width="600" height="160" as="geometry" />
        </mxCell>
        <mxCell id="_80G5sTWAN3Qly69pA7i-6" value="&lt;p style=&quot;margin:0px;margin-top:4px;text-align:center;&quot;&gt;&lt;b&gt;ScheduleController&lt;/b&gt;&lt;/p&gt;&lt;hr size=&quot;1&quot;/&gt;&lt;p style=&quot;margin:0 0 0 4px;line-height:1.6;&quot;&gt;+ ScheduleController(SchedulePageService, AuditoriumService, MovieService): &lt;/p&gt;&lt;hr size=&quot;1&quot;/&gt;&lt;p style=&quot;margin:0 0 0 4px;line-height:1.6;&quot;&gt;- movieService: MovieService&lt;br/&gt;- schedulePageService: SchedulePageService&lt;br/&gt;- auditoriumService: AuditoriumService&lt;/p&gt;&lt;hr size=&quot;1&quot;/&gt;&lt;p style=&quot;margin:0 0 0 4px;line-height:1.6;&quot;&gt;+ showScheduleChoice(Model, boolean, boolean, boolean, String, String, String, String): String&lt;br/&gt;+ bookingPage(Model, String, String, long, String, String, String): String&lt;br/&gt;+ showSchedule(Model): String&lt;br/&gt;- formModel(Model): void&lt;/p&gt;" style="verticalAlign=top;align=left;overflow=fill;fontSize=14;fontFamily=Helvetica;html=1;rounded=0;shadow=0;comic=0;labelBackgroundColor=none;strokeWidth=1;fillColor=#dae8fc;strokeColor=#6c8ebf;" parent="1" vertex="1">
          <mxGeometry x="-360" y="7680" width="600" height="250" as="geometry" />
        </mxCell>
        <mxCell id="_80G5sTWAN3Qly69pA7i-7" value="&lt;p style=&quot;margin:0px;margin-top:4px;text-align:center;&quot;&gt;&lt;b&gt;SoonController&lt;/b&gt;&lt;/p&gt;&lt;hr size=&quot;1&quot;/&gt;&lt;p style=&quot;margin:0 0 0 4px;line-height:1.6;&quot;&gt;+ SoonController(MovieService): &lt;/p&gt;&lt;hr size=&quot;1&quot;/&gt;&lt;p style=&quot;margin:0 0 0 4px;line-height:1.6;&quot;&gt;- movieService: MovieService&lt;/p&gt;&lt;hr size=&quot;1&quot;/&gt;&lt;p style=&quot;margin:0 0 0 4px;line-height:1.6;&quot;&gt;+ soon(Model): String&lt;/p&gt;" style="verticalAlign=top;align=left;overflow=fill;fontSize=14;fontFamily=Helvetica;html=1;rounded=0;shadow=0;comic=0;labelBackgroundColor=none;strokeWidth=1;fillColor=#dae8fc;strokeColor=#6c8ebf;" parent="1" vertex="1">
          <mxGeometry x="-360" y="8160" width="600" height="140" as="geometry" />
        </mxCell>
        <mxCell id="_80G5sTWAN3Qly69pA7i-8" value="&lt;p style=&quot;margin:0px;margin-top:4px;text-align:center;&quot;&gt;&lt;b&gt;UserTheaterController&lt;/b&gt;&lt;/p&gt;&lt;hr size=&quot;1&quot;/&gt;&lt;p style=&quot;margin:0 0 0 4px;line-height:1.6;&quot;&gt;+ UserTheaterController(TheaterService, AuditoriumService): &lt;/p&gt;&lt;hr size=&quot;1&quot;/&gt;&lt;p style=&quot;margin:0 0 0 4px;line-height:1.6;&quot;&gt;- auditoriumService: AuditoriumService&lt;br/&gt;- theaterService: TheaterService&lt;/p&gt;&lt;hr size=&quot;1&quot;/&gt;&lt;p style=&quot;margin:0 0 0 4px;line-height:1.6;&quot;&gt;+ showAuditorium(Model, long): String&lt;br/&gt;+ theaters(Model): String&lt;br/&gt;+ showTheater(Model, long): String&lt;/p&gt;" style="verticalAlign=top;align=left;overflow=fill;fontSize=14;fontFamily=Helvetica;html=1;rounded=0;shadow=0;comic=0;labelBackgroundColor=none;strokeWidth=1;fillColor=#dae8fc;strokeColor=#6c8ebf;" parent="1" vertex="1">
          <mxGeometry x="-360" y="8560" width="600" height="210" as="geometry" />
        </mxCell>
        <mxCell id="_80G5sTWAN3Qly69pA7i-9" value="&lt;font style=&quot;font-size: 48px;&quot;&gt;Admin p&lt;span style=&quot;background-color: initial;&quot;&gt;art&lt;/span&gt;&lt;/font&gt;" style="text;html=1;align=center;verticalAlign=middle;resizable=0;points=[];autosize=1;strokeColor=none;fillColor=none;fontSize=64;" parent="1" vertex="1">
          <mxGeometry x="-185" y="-330" width="260" height="90" as="geometry" />
        </mxCell>
        <mxCell id="_80G5sTWAN3Qly69pA7i-10" value="&lt;font style=&quot;font-size: 48px;&quot;&gt;Public&amp;nbsp;&lt;/font&gt;&lt;span style=&quot;font-size: 48px; background-color: initial;&quot;&gt;p&lt;/span&gt;&lt;span style=&quot;font-size: 48px; background-color: initial;&quot;&gt;art&lt;/span&gt;" style="text;html=1;align=center;verticalAlign=middle;resizable=0;points=[];autosize=1;strokeColor=none;fillColor=none;fontSize=64;" parent="1" vertex="1">
          <mxGeometry x="-185" y="4170" width="250" height="90" as="geometry" />
        </mxCell>
        <mxCell id="_80G5sTWAN3Qly69pA7i-11" value="" style="endArrow=none;html=1;rounded=0;strokeWidth=4;" parent="1" edge="1">
          <mxGeometry width="50" height="50" relative="1" as="geometry">
            <mxPoint x="4420" y="8780" as="sourcePoint" />
            <mxPoint x="4420" y="-620" as="targetPoint" />
          </mxGeometry>
        </mxCell>
        <mxCell id="_80G5sTWAN3Qly69pA7i-12" value="&lt;p style=&quot;margin:0px;margin-top:4px;text-align:center;&quot;&gt;&lt;i&gt;&amp;lt;&amp;lt;record&amp;gt;&amp;gt;&lt;/i&gt;&lt;br/&gt;&lt;b&gt;AddressDto&lt;/b&gt;&lt;/p&gt;&lt;hr size=&quot;1&quot;/&gt;&lt;p style=&quot;margin:0 0 0 4px;line-height:1.6;&quot;&gt;+ AddressDto(Long, String, String, String, String, String): &lt;/p&gt;&lt;hr size=&quot;1&quot;/&gt;&lt;p style=&quot;margin:0 0 0 4px;line-height:1.6;&quot;&gt;- city: String&lt;br/&gt;- flatNumber: String&lt;br/&gt;- houseNumber: String&lt;br/&gt;- id: Long&lt;br/&gt;- street: String&lt;br/&gt;- zipCode: String&lt;/p&gt;&lt;hr size=&quot;1&quot;/&gt;&lt;p style=&quot;margin:0 0 0 4px;line-height:1.6;&quot;&gt;+ EMPTY(): AddressDto&lt;br/&gt;+ city(): String&lt;br/&gt;+ flatNumber(): String&lt;br/&gt;+ houseNumber(): String&lt;br/&gt;+ id(): Long&lt;br/&gt;+ street(): String&lt;br/&gt;+ toString(): String&lt;br/&gt;+ zipCode(): String&lt;/p&gt;" style="verticalAlign=top;align=left;overflow=fill;fontSize=14;fontFamily=Helvetica;html=1;rounded=0;shadow=0;comic=0;labelBackgroundColor=none;strokeWidth=1;fillColor=#f8cecc;strokeColor=#b85450;" parent="1" vertex="1">
          <mxGeometry x="880" y="-160" width="400" height="430" as="geometry" />
        </mxCell>
        <mxCell id="_80G5sTWAN3Qly69pA7i-13" value="&lt;p style=&quot;margin:0px;margin-top:4px;text-align:center;&quot;&gt;&lt;i&gt;&amp;lt;&amp;lt;record&amp;gt;&amp;gt;&lt;/i&gt;&lt;br&gt;&lt;b&gt;AuditoriumDto&lt;/b&gt;&lt;/p&gt;&lt;hr size=&quot;1&quot;&gt;&lt;p style=&quot;margin:0 0 0 4px;line-height:1.6;&quot;&gt;+ AuditoriumDto(&lt;/p&gt;&lt;p style=&quot;margin:0 0 0 4px;line-height:1.6;&quot;&gt;&lt;span style=&quot;white-space: pre;&quot;&gt;&#x9;&lt;/span&gt;Long, Integer, String, LocalDate, String, String, Long,&amp;nbsp;&lt;/p&gt;&lt;p style=&quot;margin:0 0 0 4px;line-height:1.6;&quot;&gt;&lt;span style=&quot;white-space: pre;&quot;&gt;&#x9;&lt;/span&gt;List&amp;lt;AuditoriumPictureDto&amp;gt;, SeoBlockDto&lt;/p&gt;&lt;p style=&quot;margin:0 0 0 4px;line-height:1.6;&quot;&gt;): &lt;/p&gt;&lt;hr size=&quot;1&quot;&gt;&lt;p style=&quot;margin:0 0 0 4px;line-height:1.6;&quot;&gt;- bannerUrl: String&lt;br&gt;- date: LocalDate&lt;br&gt;- description: String&lt;br&gt;- id: Long&lt;br&gt;- number: Integer&lt;br&gt;- pictures: List&amp;lt;AuditoriumPictureDto&amp;gt;&lt;br&gt;- schemeUrl: String&lt;br&gt;- seoBlock: SeoBlockDto&lt;br&gt;- theaterId: Long&lt;/p&gt;&lt;hr size=&quot;1&quot;&gt;&lt;p style=&quot;margin:0 0 0 4px;line-height:1.6;&quot;&gt;+ EMPTY(): AuditoriumDto&lt;br&gt;+ bannerUrl(): String&lt;br&gt;+ date(): LocalDate&lt;br&gt;+ description(): String&lt;br&gt;+ id(): Long&lt;br&gt;+ number(): Integer&lt;br&gt;+ pictures(): List&amp;lt;AuditoriumPictureDto&amp;gt;&lt;br&gt;+ schemeUrl(): String&lt;br&gt;+ seoBlock(): SeoBlockDto&lt;br&gt;+ theaterId(): Long&lt;/p&gt;" style="verticalAlign=top;align=left;overflow=fill;fontSize=14;fontFamily=Helvetica;html=1;rounded=0;shadow=0;comic=0;labelBackgroundColor=none;strokeWidth=1;fillColor=#f8cecc;strokeColor=#b85450;" parent="1" vertex="1">
          <mxGeometry x="880" y="400" width="400" height="610" as="geometry" />
        </mxCell>
        <mxCell id="_80G5sTWAN3Qly69pA7i-14" value="&lt;p style=&quot;margin:0px;margin-top:4px;text-align:center;&quot;&gt;&lt;i&gt;&amp;lt;&amp;lt;record&amp;gt;&amp;gt;&lt;/i&gt;&lt;br/&gt;&lt;b&gt;AuditoriumPictureDto&lt;/b&gt;&lt;/p&gt;&lt;hr size=&quot;1&quot;/&gt;&lt;p style=&quot;margin:0 0 0 4px;line-height:1.6;&quot;&gt;+ AuditoriumPictureDto(Long, String): &lt;/p&gt;&lt;hr size=&quot;1&quot;/&gt;&lt;p style=&quot;margin:0 0 0 4px;line-height:1.6;&quot;&gt;- id: Long&lt;br/&gt;- path: String&lt;/p&gt;&lt;hr size=&quot;1&quot;/&gt;&lt;p style=&quot;margin:0 0 0 4px;line-height:1.6;&quot;&gt;+ id(): Long&lt;br/&gt;+ path(): String&lt;/p&gt;" style="verticalAlign=top;align=left;overflow=fill;fontSize=14;fontFamily=Helvetica;html=1;rounded=0;shadow=0;comic=0;labelBackgroundColor=none;strokeWidth=1;fillColor=#f8cecc;strokeColor=#b85450;" parent="1" vertex="1">
          <mxGeometry x="1440" y="400" width="360" height="210" as="geometry" />
        </mxCell>
        <mxCell id="_80G5sTWAN3Qly69pA7i-15" value="&lt;p style=&quot;margin:0px;margin-top:4px;text-align:center;&quot;&gt;&lt;i&gt;&amp;lt;&amp;lt;record&amp;gt;&amp;gt;&lt;/i&gt;&lt;br/&gt;&lt;b&gt;ContactDto&lt;/b&gt;&lt;/p&gt;&lt;hr size=&quot;1&quot;/&gt;&lt;p style=&quot;margin:0 0 0 4px;line-height:1.6;&quot;&gt;+ ContactDto(Long, String, String, String): &lt;/p&gt;&lt;hr size=&quot;1&quot;/&gt;&lt;p style=&quot;margin:0 0 0 4px;line-height:1.6;&quot;&gt;- address: String&lt;br/&gt;- coordinates: String&lt;br/&gt;- id: Long&lt;br/&gt;- title: String&lt;/p&gt;&lt;hr size=&quot;1&quot;/&gt;&lt;p style=&quot;margin:0 0 0 4px;line-height:1.6;&quot;&gt;+ address(): String&lt;br/&gt;+ coordinates(): String&lt;br/&gt;+ id(): Long&lt;br/&gt;+ title(): String&lt;/p&gt;" style="verticalAlign=top;align=left;overflow=fill;fontSize=14;fontFamily=Helvetica;html=1;rounded=0;shadow=0;comic=0;labelBackgroundColor=none;strokeWidth=1;fillColor=#f8cecc;strokeColor=#b85450;" parent="1" vertex="1">
          <mxGeometry x="880" y="1120" width="400" height="300" as="geometry" />
        </mxCell>
        <mxCell id="_80G5sTWAN3Qly69pA7i-16" value="&lt;p style=&quot;margin:0px;margin-top:4px;text-align:center;&quot;&gt;&lt;i&gt;&amp;lt;&amp;lt;record&amp;gt;&amp;gt;&lt;/i&gt;&lt;br&gt;&lt;b&gt;EditPageDto&lt;/b&gt;&lt;/p&gt;&lt;hr size=&quot;1&quot;&gt;&lt;p style=&quot;margin:0 0 0 4px;line-height:1.6;&quot;&gt;+ EditPageDto(&lt;/p&gt;&lt;p style=&quot;margin:0 0 0 4px;line-height:1.6;&quot;&gt;&lt;span style=&quot;white-space: pre;&quot;&gt;&#x9;&lt;/span&gt;Long, String, String, String, String,&amp;nbsp;&lt;/p&gt;&lt;p style=&quot;margin:0 0 0 4px;line-height:1.6;&quot;&gt;&lt;span style=&quot;white-space: pre;&quot;&gt;&#x9;&lt;/span&gt;EditPageType, SeoBlockDto, List&amp;lt;EditPagePictureDto&amp;gt;&lt;/p&gt;&lt;p style=&quot;margin:0 0 0 4px;line-height:1.6;&quot;&gt;): &lt;/p&gt;&lt;hr size=&quot;1&quot;&gt;&lt;p style=&quot;margin:0 0 0 4px;line-height:1.6;&quot;&gt;- bannerUrl: String&lt;br&gt;- description: String&lt;br&gt;- id: Long&lt;br&gt;- pictures: List&amp;lt;EditPagePictureDto&amp;gt;&lt;br&gt;- seoBlock: SeoBlockDto&lt;br&gt;- title: String&lt;br&gt;- type: EditPageType&lt;br&gt;- videoUrl: String&lt;/p&gt;&lt;hr size=&quot;1&quot;&gt;&lt;p style=&quot;margin:0 0 0 4px;line-height:1.6;&quot;&gt;+ EMPTY(): EditPageDto&lt;br&gt;+ bannerUrl(): String&lt;br&gt;+ description(): String&lt;br&gt;+ id(): Long&lt;br&gt;+ pictures(): List&amp;lt;EditPagePictureDto&amp;gt;&lt;br&gt;+ seoBlock(): SeoBlockDto&lt;br&gt;+ title(): String&lt;br&gt;+ type(): EditPageType&lt;br&gt;+ videoUrl(): String&lt;/p&gt;" style="verticalAlign=top;align=left;overflow=fill;fontSize=14;fontFamily=Helvetica;html=1;rounded=0;shadow=0;comic=0;labelBackgroundColor=none;strokeWidth=1;fillColor=#f8cecc;strokeColor=#b85450;" parent="1" vertex="1">
          <mxGeometry x="880" y="1602" width="400" height="568" as="geometry" />
        </mxCell>
        <mxCell id="_80G5sTWAN3Qly69pA7i-17" value="&lt;p style=&quot;margin:0px;margin-top:4px;text-align:center;&quot;&gt;&lt;i&gt;&amp;lt;&amp;lt;record&amp;gt;&amp;gt;&lt;/i&gt;&lt;br/&gt;&lt;b&gt;EditPagePictureDto&lt;/b&gt;&lt;/p&gt;&lt;hr size=&quot;1&quot;/&gt;&lt;p style=&quot;margin:0 0 0 4px;line-height:1.6;&quot;&gt;+ EditPagePictureDto(Long, String): &lt;/p&gt;&lt;hr size=&quot;1&quot;/&gt;&lt;p style=&quot;margin:0 0 0 4px;line-height:1.6;&quot;&gt;- id: Long&lt;br/&gt;- path: String&lt;/p&gt;&lt;hr size=&quot;1&quot;/&gt;&lt;p style=&quot;margin:0 0 0 4px;line-height:1.6;&quot;&gt;+ id(): Long&lt;br/&gt;+ path(): String&lt;/p&gt;" style="verticalAlign=top;align=left;overflow=fill;fontSize=14;fontFamily=Helvetica;html=1;rounded=0;shadow=0;comic=0;labelBackgroundColor=none;strokeWidth=1;fillColor=#f8cecc;strokeColor=#b85450;" parent="1" vertex="1">
          <mxGeometry x="1440" y="1602" width="360" height="208" as="geometry" />
        </mxCell>
        <mxCell id="_80G5sTWAN3Qly69pA7i-18" value="&lt;p style=&quot;margin:0px;margin-top:4px;text-align:center;&quot;&gt;&lt;i&gt;&amp;lt;&amp;lt;record&amp;gt;&amp;gt;&lt;/i&gt;&lt;br&gt;&lt;b&gt;MainPageInfoDto&lt;/b&gt;&lt;/p&gt;&lt;hr size=&quot;1&quot;&gt;&lt;p style=&quot;margin:0 0 0 4px;line-height:1.6;&quot;&gt;+ MainPageInfoDto(&lt;/p&gt;&lt;p style=&quot;margin:0 0 0 4px;line-height:1.6;&quot;&gt;&lt;span style=&quot;white-space: pre;&quot;&gt;&#x9;&lt;/span&gt;Long, String, String, String, SeoBlockDto&lt;/p&gt;&lt;p style=&quot;margin:0 0 0 4px;line-height:1.6;&quot;&gt;): &lt;/p&gt;&lt;hr size=&quot;1&quot;&gt;&lt;p style=&quot;margin:0 0 0 4px;line-height:1.6;&quot;&gt;- id: Long&lt;br&gt;- phoneNumber1: String&lt;br&gt;- phoneNumber2: String&lt;br&gt;- seoBlock: SeoBlockDto&lt;br&gt;- seoText: String&lt;/p&gt;&lt;hr size=&quot;1&quot;&gt;&lt;p style=&quot;margin:0 0 0 4px;line-height:1.6;&quot;&gt;+ EMPTY(): MainPageInfoDto&lt;br&gt;+ id(): Long&lt;br&gt;+ phoneNumber1(): String&lt;br&gt;+ phoneNumber2(): String&lt;br&gt;+ seoBlock(): SeoBlockDto&lt;br&gt;+ seoText(): String&lt;/p&gt;" style="verticalAlign=top;align=left;overflow=fill;fontSize=14;fontFamily=Helvetica;html=1;rounded=0;shadow=0;comic=0;labelBackgroundColor=none;strokeWidth=1;fillColor=#f8cecc;strokeColor=#b85450;" parent="1" vertex="1">
          <mxGeometry x="880" y="2360" width="400" height="410" as="geometry" />
        </mxCell>
        <mxCell id="_80G5sTWAN3Qly69pA7i-19" value="&lt;p style=&quot;margin:0px;margin-top:4px;text-align:center;&quot;&gt;&lt;i&gt;&amp;lt;&amp;lt;record&amp;gt;&amp;gt;&lt;/i&gt;&lt;br&gt;&lt;b&gt;MovieDto&lt;/b&gt;&lt;/p&gt;&lt;hr size=&quot;1&quot;&gt;&lt;p style=&quot;margin:0 0 0 4px;line-height:1.6;&quot;&gt;+ MovieDto(&lt;/p&gt;&lt;p style=&quot;margin:0 0 0 4px;line-height:1.6;&quot;&gt;&lt;span style=&quot;white-space: pre;&quot;&gt;&#x9;&lt;/span&gt;Long, String, String, String, String, String, Boolean,&amp;nbsp;&lt;/p&gt;&lt;p style=&quot;margin:0 0 0 4px;line-height:1.6;&quot;&gt;&lt;span style=&quot;white-space: pre;&quot;&gt;&#x9;&lt;/span&gt;Boolean, Boolean, Integer, MovieDetails, SeoBlockDto,&amp;nbsp;&lt;/p&gt;&lt;p style=&quot;margin:0 0 0 4px;line-height:1.6;&quot;&gt;&lt;span style=&quot;white-space: pre;&quot;&gt;&#x9;&lt;/span&gt;List&amp;lt;MoviePictureDto&amp;gt;&lt;/p&gt;&lt;p style=&quot;margin:0 0 0 4px;line-height:1.6;&quot;&gt;): &lt;/p&gt;&lt;hr size=&quot;1&quot;&gt;&lt;p style=&quot;margin:0 0 0 4px;line-height:1.6;&quot;&gt;- ageCenz: Integer&lt;br&gt;- description: String&lt;br&gt;- details: MovieDetails&lt;br&gt;- has2D: Boolean&lt;br&gt;- has3D: Boolean&lt;br&gt;- hasImax: Boolean&lt;br&gt;- id: Long&lt;br&gt;- nativeTitle: String&lt;br&gt;- pictures: List&amp;lt;MoviePictureDto&amp;gt;&lt;br&gt;- posterUrl: String&lt;br&gt;- seoBlock: SeoBlockDto&lt;br&gt;- trailerUrl: String&lt;br&gt;- uaTitle: String&lt;/p&gt;&lt;hr size=&quot;1&quot;&gt;&lt;p style=&quot;margin:0 0 0 4px;line-height:1.6;&quot;&gt;+ EMPTY(): MovieDto&lt;br&gt;+ ageCenz(): Integer&lt;br&gt;+ description(): String&lt;br&gt;+ details(): MovieDetails&lt;br&gt;+ has2D(): Boolean&lt;br&gt;+ has3D(): Boolean&lt;br&gt;+ hasImax(): Boolean&lt;br&gt;+ id(): Long&lt;br&gt;+ nativeTitle(): String&lt;br&gt;+ pictures(): List&amp;lt;MoviePictureDto&amp;gt;&lt;br&gt;+ posterUrl(): String&lt;br&gt;+ seoBlock(): SeoBlockDto&lt;br&gt;+ trailerUrl(): String&lt;br&gt;+ uaTitle(): String&lt;/p&gt;" style="verticalAlign=top;align=left;overflow=fill;fontSize=14;fontFamily=Helvetica;html=1;rounded=0;shadow=0;comic=0;labelBackgroundColor=none;strokeWidth=1;fillColor=#f8cecc;strokeColor=#b85450;" parent="1" vertex="1">
          <mxGeometry x="880" y="2960" width="401" height="810" as="geometry" />
        </mxCell>
        <mxCell id="_80G5sTWAN3Qly69pA7i-20" value="&lt;p style=&quot;margin:0px;margin-top:4px;text-align:center;&quot;&gt;&lt;i&gt;&amp;lt;&amp;lt;record&amp;gt;&amp;gt;&lt;/i&gt;&lt;br/&gt;&lt;b&gt;MoviePictureDto&lt;/b&gt;&lt;/p&gt;&lt;hr size=&quot;1&quot;/&gt;&lt;p style=&quot;margin:0 0 0 4px;line-height:1.6;&quot;&gt;+ MoviePictureDto(Long, String): &lt;/p&gt;&lt;hr size=&quot;1&quot;/&gt;&lt;p style=&quot;margin:0 0 0 4px;line-height:1.6;&quot;&gt;- id: Long&lt;br/&gt;- path: String&lt;/p&gt;&lt;hr size=&quot;1&quot;/&gt;&lt;p style=&quot;margin:0 0 0 4px;line-height:1.6;&quot;&gt;+ id(): Long&lt;br/&gt;+ path(): String&lt;/p&gt;" style="verticalAlign=top;align=left;overflow=fill;fontSize=14;fontFamily=Helvetica;html=1;rounded=0;shadow=0;comic=0;labelBackgroundColor=none;strokeWidth=1;fillColor=#f8cecc;strokeColor=#b85450;" parent="1" vertex="1">
          <mxGeometry x="1440" y="2960" width="360" height="210" as="geometry" />
        </mxCell>
        <mxCell id="_80G5sTWAN3Qly69pA7i-21" value="&lt;p style=&quot;margin:0px;margin-top:4px;text-align:center;&quot;&gt;&lt;i&gt;&amp;lt;&amp;lt;record&amp;gt;&amp;gt;&lt;/i&gt;&lt;br/&gt;&lt;b&gt;MoviesResponceDto&lt;/b&gt;&lt;/p&gt;&lt;hr size=&quot;1&quot;/&gt;&lt;p style=&quot;margin:0 0 0 4px;line-height:1.6;&quot;&gt;+ MoviesResponceDto(Long, String, String): &lt;/p&gt;&lt;hr size=&quot;1&quot;/&gt;&lt;p style=&quot;margin:0 0 0 4px;line-height:1.6;&quot;&gt;- id: Long&lt;br/&gt;- posterUrl: String&lt;br/&gt;- uaTitle: String&lt;/p&gt;&lt;hr size=&quot;1&quot;/&gt;&lt;p style=&quot;margin:0 0 0 4px;line-height:1.6;&quot;&gt;+ id(): Long&lt;br/&gt;+ posterUrl(): String&lt;br/&gt;+ uaTitle(): String&lt;/p&gt;" style="verticalAlign=top;align=left;overflow=fill;fontSize=14;fontFamily=Helvetica;html=1;rounded=0;shadow=0;comic=0;labelBackgroundColor=none;strokeWidth=1;fillColor=#f8cecc;strokeColor=#b85450;" parent="1" vertex="1">
          <mxGeometry x="880" y="3960" width="400" height="250" as="geometry" />
        </mxCell>
        <mxCell id="_80G5sTWAN3Qly69pA7i-22" value="&lt;p style=&quot;margin:0px;margin-top:4px;text-align:center;&quot;&gt;&lt;i&gt;&amp;lt;&amp;lt;record&amp;gt;&amp;gt;&lt;/i&gt;&lt;br&gt;&lt;b&gt;NewsDto&lt;/b&gt;&lt;/p&gt;&lt;hr size=&quot;1&quot;&gt;&lt;p style=&quot;margin:0 0 0 4px;line-height:1.6;&quot;&gt;+ NewsDto(&lt;/p&gt;&lt;p style=&quot;margin:0 0 0 4px;line-height:1.6;&quot;&gt;&lt;span style=&quot;white-space: pre;&quot;&gt;&#x9;&lt;/span&gt;Long, String, String, LocalDate, String,&amp;nbsp;&lt;/p&gt;&lt;p style=&quot;margin:0 0 0 4px;line-height:1.6;&quot;&gt;&lt;span style=&quot;white-space: pre;&quot;&gt;&#x9;&lt;/span&gt;String,&amp;nbsp;&lt;span style=&quot;background-color: initial;&quot;&gt;SeoBlockDto, Status&lt;/span&gt;&lt;/p&gt;&lt;p style=&quot;margin:0 0 0 4px;line-height:1.6;&quot;&gt;&lt;span style=&quot;background-color: initial;&quot;&gt;):&lt;/span&gt;&lt;/p&gt;&lt;hr size=&quot;1&quot;&gt;&lt;p style=&quot;margin:0 0 0 4px;line-height:1.6;&quot;&gt;- content: String&lt;br&gt;- date: LocalDate&lt;br&gt;- id: Long&lt;br&gt;- pictureUrl: String&lt;br&gt;- seoBlock: SeoBlockDto&lt;br&gt;- status: Status&lt;br&gt;- title: String&lt;br&gt;- trailerUrl: String&lt;/p&gt;&lt;hr size=&quot;1&quot;&gt;&lt;p style=&quot;margin:0 0 0 4px;line-height:1.6;&quot;&gt;+ EMPTY(): NewsDto&lt;br&gt;+ content(): String&lt;br&gt;+ date(): LocalDate&lt;br&gt;+ id(): Long&lt;br&gt;+ pictureUrl(): String&lt;br&gt;+ seoBlock(): SeoBlockDto&lt;br&gt;+ status(): Status&lt;br&gt;+ title(): String&lt;br&gt;+ trailerUrl(): String&lt;/p&gt;" style="verticalAlign=top;align=left;overflow=fill;fontSize=14;fontFamily=Helvetica;html=1;rounded=0;shadow=0;comic=0;labelBackgroundColor=none;strokeWidth=1;fillColor=#f8cecc;strokeColor=#b85450;" parent="1" vertex="1">
          <mxGeometry x="880" y="4440" width="400" height="570" as="geometry" />
        </mxCell>
        <mxCell id="_80G5sTWAN3Qly69pA7i-23" value="&lt;p style=&quot;margin:0px;margin-top:4px;text-align:center;&quot;&gt;&lt;i&gt;&amp;lt;&amp;lt;record&amp;gt;&amp;gt;&lt;/i&gt;&lt;br&gt;&lt;b&gt;PromotionDto&lt;/b&gt;&lt;/p&gt;&lt;hr size=&quot;1&quot;&gt;&lt;p style=&quot;margin:0 0 0 4px;line-height:1.6;&quot;&gt;+ PromotionDto(&lt;/p&gt;&lt;p style=&quot;margin:0 0 0 4px;line-height:1.6;&quot;&gt;&lt;span style=&quot;white-space: pre;&quot;&gt;&#x9;&lt;/span&gt;Long, String, String, LocalDate, String,&amp;nbsp;&lt;/p&gt;&lt;p style=&quot;margin:0 0 0 4px;line-height:1.6;&quot;&gt;&lt;span style=&quot;white-space: pre;&quot;&gt;&#x9;&lt;/span&gt;String, SeoBlockDto, Status&lt;/p&gt;&lt;p style=&quot;margin:0 0 0 4px;line-height:1.6;&quot;&gt;): &lt;/p&gt;&lt;hr size=&quot;1&quot;&gt;&lt;p style=&quot;margin:0 0 0 4px;line-height:1.6;&quot;&gt;- content: String&lt;br&gt;- date: LocalDate&lt;br&gt;- id: Long&lt;br&gt;- pictureUrl: String&lt;br&gt;- seoBlock: SeoBlockDto&lt;br&gt;- status: Status&lt;br&gt;- title: String&lt;br&gt;- trailerUrl: String&lt;/p&gt;&lt;hr size=&quot;1&quot;&gt;&lt;p style=&quot;margin:0 0 0 4px;line-height:1.6;&quot;&gt;+ EMPTY(): PromotionDto&lt;br&gt;+ content(): String&lt;br&gt;+ date(): LocalDate&lt;br&gt;+ id(): Long&lt;br&gt;+ pictureUrl(): String&lt;br&gt;+ seoBlock(): SeoBlockDto&lt;br&gt;+ status(): Status&lt;br&gt;+ title(): String&lt;br&gt;+ trailerUrl(): String&lt;/p&gt;" style="verticalAlign=top;align=left;overflow=fill;fontSize=14;fontFamily=Helvetica;html=1;rounded=0;shadow=0;comic=0;labelBackgroundColor=none;strokeWidth=1;fillColor=#f8cecc;strokeColor=#b85450;" parent="1" vertex="1">
          <mxGeometry x="880" y="5200" width="400" height="570" as="geometry" />
        </mxCell>
        <mxCell id="_80G5sTWAN3Qly69pA7i-24" value="&lt;p style=&quot;margin:0px;margin-top:4px;text-align:center;&quot;&gt;&lt;i&gt;&amp;lt;&amp;lt;record&amp;gt;&amp;gt;&lt;/i&gt;&lt;br/&gt;&lt;b&gt;ScheduleDto&lt;/b&gt;&lt;/p&gt;&lt;hr size=&quot;1&quot;/&gt;&lt;p style=&quot;margin:0 0 0 4px;line-height:1.6;&quot;&gt;+ ScheduleDto(Long, Long, LocalDate, LocalTime): &lt;/p&gt;&lt;hr size=&quot;1&quot;/&gt;&lt;p style=&quot;margin:0 0 0 4px;line-height:1.6;&quot;&gt;- auditoriumId: Long&lt;br/&gt;- date: LocalDate&lt;br/&gt;- movieId: Long&lt;br/&gt;- time: LocalTime&lt;/p&gt;&lt;hr size=&quot;1&quot;/&gt;&lt;p style=&quot;margin:0 0 0 4px;line-height:1.6;&quot;&gt;+ auditoriumId(): Long&lt;br/&gt;+ date(): LocalDate&lt;br/&gt;+ movieId(): Long&lt;br/&gt;+ time(): LocalTime&lt;/p&gt;" style="verticalAlign=top;align=left;overflow=fill;fontSize=14;fontFamily=Helvetica;html=1;rounded=0;shadow=0;comic=0;labelBackgroundColor=none;strokeWidth=1;fillColor=#f8cecc;strokeColor=#b85450;" parent="1" vertex="1">
          <mxGeometry x="880" y="5960" width="400" height="300" as="geometry" />
        </mxCell>
        <mxCell id="_80G5sTWAN3Qly69pA7i-25" value="&lt;p style=&quot;margin:0px;margin-top:4px;text-align:center;&quot;&gt;&lt;i&gt;&amp;lt;&amp;lt;record&amp;gt;&amp;gt;&lt;/i&gt;&lt;br/&gt;&lt;b&gt;SeoBlockDto&lt;/b&gt;&lt;/p&gt;&lt;hr size=&quot;1&quot;/&gt;&lt;p style=&quot;margin:0 0 0 4px;line-height:1.6;&quot;&gt;+ SeoBlockDto(Long, String, String, String, String): &lt;/p&gt;&lt;hr size=&quot;1&quot;/&gt;&lt;p style=&quot;margin:0 0 0 4px;line-height:1.6;&quot;&gt;- description: String&lt;br/&gt;- id: Long&lt;br/&gt;- keywords: String&lt;br/&gt;- title: String&lt;br/&gt;- url: String&lt;/p&gt;&lt;hr size=&quot;1&quot;/&gt;&lt;p style=&quot;margin:0 0 0 4px;line-height:1.6;&quot;&gt;+ EMPTY(): SeoBlockDto&lt;br/&gt;+ description(): String&lt;br/&gt;+ id(): Long&lt;br/&gt;+ keywords(): String&lt;br/&gt;+ title(): String&lt;br/&gt;+ url(): String&lt;/p&gt;" style="verticalAlign=top;align=left;overflow=fill;fontSize=14;fontFamily=Helvetica;html=1;rounded=0;shadow=0;comic=0;labelBackgroundColor=none;strokeWidth=1;fillColor=#f8cecc;strokeColor=#b85450;" parent="1" vertex="1">
          <mxGeometry x="1440" y="3760" width="360" height="311" as="geometry" />
        </mxCell>
        <mxCell id="_80G5sTWAN3Qly69pA7i-26" value="&lt;p style=&quot;margin:0px;margin-top:4px;text-align:center;&quot;&gt;&lt;i&gt;&amp;lt;&amp;lt;record&amp;gt;&amp;gt;&lt;/i&gt;&lt;br&gt;&lt;b&gt;TheaterDto&lt;/b&gt;&lt;/p&gt;&lt;hr size=&quot;1&quot;&gt;&lt;p style=&quot;margin:0 0 0 4px;line-height:1.6;&quot;&gt;+ TheaterDto(&lt;/p&gt;&lt;p style=&quot;margin:0 0 0 4px;line-height:1.6;&quot;&gt;&lt;span style=&quot;white-space: pre;&quot;&gt;&#x9;&lt;/span&gt;Long, String, String, String, String,&amp;nbsp;&lt;/p&gt;&lt;p style=&quot;margin:0 0 0 4px;line-height:1.6;&quot;&gt;&lt;span style=&quot;white-space: pre;&quot;&gt;&#x9;&lt;/span&gt;String, List&amp;lt;TheaterPictureDto&amp;gt;,&amp;nbsp;&lt;/p&gt;&lt;p style=&quot;margin:0 0 0 4px;line-height:1.6;&quot;&gt;&lt;span style=&quot;white-space: pre;&quot;&gt;&#x9;&lt;/span&gt;List&amp;lt;AuditoriumDto&amp;gt;, SeoBlockDto&lt;/p&gt;&lt;p style=&quot;margin:0 0 0 4px;line-height:1.6;&quot;&gt;): &lt;/p&gt;&lt;hr size=&quot;1&quot;&gt;&lt;p style=&quot;margin:0 0 0 4px;line-height:1.6;&quot;&gt;- auditoriums: List&amp;lt;AuditoriumDto&amp;gt;&lt;br&gt;- bannerUrl: String&lt;br&gt;- conditions: String&lt;br&gt;- description: String&lt;br&gt;- id: Long&lt;br&gt;- logoUrl: String&lt;br&gt;- pictures: List&amp;lt;TheaterPictureDto&amp;gt;&lt;br&gt;- seoBlock: SeoBlockDto&lt;br&gt;- title: String&lt;/p&gt;&lt;hr size=&quot;1&quot;&gt;&lt;p style=&quot;margin:0 0 0 4px;line-height:1.6;&quot;&gt;+ EMPTY(): TheaterDto&lt;br&gt;+ auditoriums(): List&amp;lt;AuditoriumDto&amp;gt;&lt;br&gt;+ bannerUrl(): String&lt;br&gt;+ conditions(): String&lt;br&gt;+ description(): String&lt;br&gt;+ id(): Long&lt;br&gt;+ logoUrl(): String&lt;br&gt;+ pictures(): List&amp;lt;TheaterPictureDto&amp;gt;&lt;br&gt;+ seoBlock(): SeoBlockDto&lt;br&gt;+ title(): String&lt;/p&gt;" style="verticalAlign=top;align=left;overflow=fill;fontSize=14;fontFamily=Helvetica;html=1;rounded=0;shadow=0;comic=0;labelBackgroundColor=none;strokeWidth=1;fillColor=#f8cecc;strokeColor=#b85450;" parent="1" vertex="1">
          <mxGeometry x="880" y="6480" width="400" height="630" as="geometry" />
        </mxCell>
        <mxCell id="_80G5sTWAN3Qly69pA7i-27" value="&lt;p style=&quot;margin:0px;margin-top:4px;text-align:center;&quot;&gt;&lt;i&gt;&amp;lt;&amp;lt;record&amp;gt;&amp;gt;&lt;/i&gt;&lt;br/&gt;&lt;b&gt;TheaterPictureDto&lt;/b&gt;&lt;/p&gt;&lt;hr size=&quot;1&quot;/&gt;&lt;p style=&quot;margin:0 0 0 4px;line-height:1.6;&quot;&gt;+ TheaterPictureDto(Long, String): &lt;/p&gt;&lt;hr size=&quot;1&quot;/&gt;&lt;p style=&quot;margin:0 0 0 4px;line-height:1.6;&quot;&gt;- id: Long&lt;br/&gt;- path: String&lt;/p&gt;&lt;hr size=&quot;1&quot;/&gt;&lt;p style=&quot;margin:0 0 0 4px;line-height:1.6;&quot;&gt;+ id(): Long&lt;br/&gt;+ path(): String&lt;/p&gt;" style="verticalAlign=top;align=left;overflow=fill;fontSize=14;fontFamily=Helvetica;html=1;rounded=0;shadow=0;comic=0;labelBackgroundColor=none;strokeWidth=1;fillColor=#f8cecc;strokeColor=#b85450;" parent="1" vertex="1">
          <mxGeometry x="1440" y="6480" width="400" height="210" as="geometry" />
        </mxCell>
        <mxCell id="_80G5sTWAN3Qly69pA7i-28" value="&lt;p style=&quot;margin:0px;margin-top:4px;text-align:center;&quot;&gt;&lt;i&gt;&amp;lt;&amp;lt;record&amp;gt;&amp;gt;&lt;/i&gt;&lt;br&gt;&lt;b&gt;UserDto&lt;/b&gt;&lt;/p&gt;&lt;hr size=&quot;1&quot;&gt;&lt;p style=&quot;margin:0 0 0 4px;line-height:1.6;&quot;&gt;+ UserDto(&lt;/p&gt;&lt;p style=&quot;margin:0 0 0 4px;line-height:1.6;&quot;&gt;&lt;span style=&quot;white-space: pre;&quot;&gt;&#x9;&lt;/span&gt;Long, String, String, String, String, String,&lt;/p&gt;&lt;p style=&quot;margin:0 0 0 4px;line-height:1.6;&quot;&gt;&lt;span style=&quot;white-space: pre;&quot;&gt;&#x9;&lt;/span&gt;&amp;nbsp;AddressDto, String, String, Language,&amp;nbsp;&lt;/p&gt;&lt;p style=&quot;margin:0 0 0 4px;line-height:1.6;&quot;&gt;&lt;span style=&quot;white-space: pre;&quot;&gt;&#x9;&lt;/span&gt;Gender, LocalDate, LocalDate, Role&lt;/p&gt;&lt;p style=&quot;margin:0 0 0 4px;line-height:1.6;&quot;&gt;): &lt;/p&gt;&lt;hr size=&quot;1&quot;&gt;&lt;p style=&quot;margin:0 0 0 4px;line-height:1.6;&quot;&gt;- address: AddressDto&lt;br&gt;- birthDate: LocalDate&lt;br&gt;- cardNumber: String&lt;br&gt;- email: String&lt;br&gt;- firstName: String&lt;br&gt;- gender: Gender&lt;br&gt;- id: Long&lt;br&gt;- language: Language&lt;br&gt;- lastName: String&lt;br&gt;- nickName: String&lt;br&gt;- passHash: String&lt;br&gt;- phone: String&lt;br&gt;- registrationDate: LocalDate&lt;br&gt;- role: Role&lt;/p&gt;&lt;hr size=&quot;1&quot;&gt;&lt;p style=&quot;margin:0 0 0 4px;line-height:1.6;&quot;&gt;+ EMPTY(): UserDto&lt;br&gt;+ address(): AddressDto&lt;br&gt;+ birthDate(): LocalDate&lt;br&gt;+ cardNumber(): String&lt;br&gt;+ email(): String&lt;br&gt;+ firstName(): String&lt;br&gt;+ gender(): Gender&lt;br&gt;+ id(): Long&lt;br&gt;+ language(): Language&lt;br&gt;+ lastName(): String&lt;br&gt;+ nickName(): String&lt;br&gt;+ passHash(): String&lt;br&gt;+ phone(): String&lt;br&gt;+ registrationDate(): LocalDate&lt;br&gt;+ role(): Role&lt;/p&gt;" style="verticalAlign=top;align=left;overflow=fill;fontSize=14;fontFamily=Helvetica;html=1;rounded=0;shadow=0;comic=0;labelBackgroundColor=none;strokeWidth=1;fillColor=#f8cecc;strokeColor=#b85450;" parent="1" vertex="1">
          <mxGeometry x="880" y="7360" width="397" height="860" as="geometry" />
        </mxCell>
        <mxCell id="_80G5sTWAN3Qly69pA7i-29" value="Model" style="text;html=1;align=center;verticalAlign=middle;resizable=0;points=[];autosize=1;strokeColor=none;fillColor=none;fontSize=64;" parent="1" vertex="1">
          <mxGeometry x="2300" y="-650" width="200" height="90" as="geometry" />
        </mxCell>
        <mxCell id="_80G5sTWAN3Qly69pA7i-30" value="&lt;span style=&quot;font-size: 48px;&quot;&gt;DTO&lt;/span&gt;" style="text;html=1;align=center;verticalAlign=middle;resizable=0;points=[];autosize=1;strokeColor=none;fillColor=none;fontSize=64;" parent="1" vertex="1">
          <mxGeometry x="1300" y="-480" width="120" height="90" as="geometry" />
        </mxCell>
        <mxCell id="_80G5sTWAN3Qly69pA7i-31" value="&lt;span style=&quot;font-size: 48px;&quot;&gt;Entity&lt;/span&gt;" style="text;html=1;align=center;verticalAlign=middle;resizable=0;points=[];autosize=1;strokeColor=none;fillColor=none;fontSize=64;" parent="1" vertex="1">
          <mxGeometry x="3360" y="-480" width="140" height="90" as="geometry" />
        </mxCell>
        <mxCell id="_80G5sTWAN3Qly69pA7i-33" value="&lt;p style=&quot;margin:0px;margin-top:4px;text-align:center;&quot;&gt;&lt;i&gt;&amp;lt;&amp;lt;record&amp;gt;&amp;gt;&lt;/i&gt;&lt;br&gt;&lt;b&gt;ContactResponceDto&lt;/b&gt;&lt;/p&gt;&lt;hr size=&quot;1&quot;&gt;&lt;p style=&quot;margin:0 0 0 4px;line-height:1.6;&quot;&gt;+ ContactResponceDto(&lt;/p&gt;&lt;p style=&quot;margin:0 0 0 4px;line-height:1.6;&quot;&gt;&lt;span style=&quot;white-space: pre;&quot;&gt;&#x9;&lt;/span&gt;String, String, String, String, String, String, String&lt;/p&gt;&lt;p style=&quot;margin:0 0 0 4px;line-height:1.6;&quot;&gt;): &lt;/p&gt;&lt;hr size=&quot;1&quot;&gt;&lt;p style=&quot;margin:0 0 0 4px;line-height:1.6;&quot;&gt;- address: String&lt;br&gt;- bannerUrl: String&lt;br&gt;- coordinates: String&lt;br&gt;- logoUrl: String&lt;br&gt;- phone1: String&lt;br&gt;- phone2: String&lt;br&gt;- title: String&lt;/p&gt;&lt;hr size=&quot;1&quot;&gt;&lt;p style=&quot;margin:0 0 0 4px;line-height:1.6;&quot;&gt;+ address(): String&lt;br&gt;+ bannerUrl(): String&lt;br&gt;+ coordinates(): String&lt;br&gt;+ logoUrl(): String&lt;br&gt;+ phone1(): String&lt;br&gt;+ phone2(): String&lt;br&gt;+ title(): String&lt;/p&gt;" style="verticalAlign=top;align=left;overflow=fill;fontSize=14;fontFamily=Helvetica;html=1;rounded=0;shadow=0;comic=0;labelBackgroundColor=none;strokeWidth=1;fillColor=#f8cecc;strokeColor=#b85450;" parent="1" vertex="1">
          <mxGeometry x="880" y="8560" width="407" height="480" as="geometry" />
        </mxCell>
        <mxCell id="_80G5sTWAN3Qly69pA7i-34" value="&lt;p style=&quot;margin:0px;margin-top:4px;text-align:center;&quot;&gt;&lt;i&gt;&amp;lt;&amp;lt;record&amp;gt;&amp;gt;&lt;/i&gt;&lt;br&gt;&lt;b&gt;SchedulePageResponceDto&lt;/b&gt;&lt;/p&gt;&lt;hr size=&quot;1&quot;&gt;&lt;p style=&quot;margin:0 0 0 4px;line-height:1.6;&quot;&gt;+ SchedulePageResponceDto(&lt;/p&gt;&lt;p style=&quot;margin:0 0 0 4px;line-height:1.6;&quot;&gt;&lt;span style=&quot;white-space: pre;&quot;&gt;&#x9;&lt;/span&gt;LocalDate, LocalTime, Long, String, String,&lt;/p&gt;&lt;p style=&quot;margin:0 0 0 4px;line-height:1.6;&quot;&gt;&lt;span style=&quot;white-space: pre;&quot;&gt;&#x9;&lt;/span&gt;&amp;nbsp;Integer, BigDecimal&lt;/p&gt;&lt;p style=&quot;margin:0 0 0 4px;line-height:1.6;&quot;&gt;): &lt;/p&gt;&lt;hr size=&quot;1&quot;&gt;&lt;p style=&quot;margin:0 0 0 4px;line-height:1.6;&quot;&gt;- auditorium: Integer&lt;br&gt;- date: LocalDate&lt;br&gt;- movie: String&lt;br&gt;- movieId: Long&lt;br&gt;- price: BigDecimal&lt;br&gt;- theater: String&lt;br&gt;- time: LocalTime&lt;/p&gt;&lt;hr size=&quot;1&quot;&gt;&lt;p style=&quot;margin:0 0 0 4px;line-height:1.6;&quot;&gt;+ auditorium(): Integer&lt;br&gt;+ date(): LocalDate&lt;br&gt;+ movie(): String&lt;br&gt;+ movieId(): Long&lt;br&gt;+ price(): BigDecimal&lt;br&gt;+ theater(): String&lt;br&gt;+ time(): LocalTime&lt;/p&gt;" style="verticalAlign=top;align=left;overflow=fill;fontSize=14;fontFamily=Helvetica;html=1;rounded=0;shadow=0;comic=0;labelBackgroundColor=none;strokeWidth=1;fillColor=#f8cecc;strokeColor=#b85450;" parent="1" vertex="1">
          <mxGeometry x="880" y="9280" width="400" height="500" as="geometry" />
        </mxCell>
        <mxCell id="_80G5sTWAN3Qly69pA7i-35" value="&lt;p style=&quot;margin:0px;margin-top:4px;text-align:center;&quot;&gt;&lt;i&gt;&amp;lt;&amp;lt;record&amp;gt;&amp;gt;&lt;/i&gt;&lt;br/&gt;&lt;b&gt;TheaterResponceDto&lt;/b&gt;&lt;/p&gt;&lt;hr size=&quot;1&quot;/&gt;&lt;p style=&quot;margin:0 0 0 4px;line-height:1.6;&quot;&gt;+ TheaterResponceDto(Long, String, String): &lt;/p&gt;&lt;hr size=&quot;1&quot;/&gt;&lt;p style=&quot;margin:0 0 0 4px;line-height:1.6;&quot;&gt;- id: Long&lt;br/&gt;- logoUrl: String&lt;br/&gt;- title: String&lt;/p&gt;&lt;hr size=&quot;1&quot;/&gt;&lt;p style=&quot;margin:0 0 0 4px;line-height:1.6;&quot;&gt;+ id(): Long&lt;br/&gt;+ logoUrl(): String&lt;br/&gt;+ title(): String&lt;/p&gt;" style="verticalAlign=top;align=left;overflow=fill;fontSize=14;fontFamily=Helvetica;html=1;rounded=0;shadow=0;comic=0;labelBackgroundColor=none;strokeWidth=1;fillColor=#f8cecc;strokeColor=#b85450;" parent="1" vertex="1">
          <mxGeometry x="880" y="10000" width="400" height="250" as="geometry" />
        </mxCell>
        <mxCell id="_80G5sTWAN3Qly69pA7i-36" value="&lt;font style=&quot;font-size: 48px;&quot;&gt;Public&amp;nbsp;&lt;/font&gt;&lt;span style=&quot;font-size: 48px; background-color: initial;&quot;&gt;p&lt;/span&gt;&lt;span style=&quot;font-size: 48px; background-color: initial;&quot;&gt;art&lt;/span&gt;" style="text;html=1;align=center;verticalAlign=middle;resizable=0;points=[];autosize=1;strokeColor=none;fillColor=none;fontSize=64;" parent="1" vertex="1">
          <mxGeometry x="2275" y="8360" width="250" height="90" as="geometry" />
        </mxCell>
        <mxCell id="_80G5sTWAN3Qly69pA7i-37" value="&lt;font style=&quot;font-size: 48px;&quot;&gt;Admin p&lt;span style=&quot;background-color: initial;&quot;&gt;art&lt;/span&gt;&lt;/font&gt;" style="text;html=1;align=center;verticalAlign=middle;resizable=0;points=[];autosize=1;strokeColor=none;fillColor=none;fontSize=64;" parent="1" vertex="1">
          <mxGeometry x="2270" y="-330" width="260" height="90" as="geometry" />
        </mxCell>
        <mxCell id="gj-kkhx7KfFzgqiumkQl-1" value="&lt;p style=&quot;margin:0px;margin-top:4px;text-align:center;&quot;&gt;&lt;b&gt;Address&lt;/b&gt;&lt;/p&gt;&lt;hr size=&quot;1&quot;/&gt;&lt;p style=&quot;margin:0 0 0 4px;line-height:1.6;&quot;&gt;+ Address(): &lt;/p&gt;&lt;hr size=&quot;1&quot;/&gt;&lt;p style=&quot;margin:0 0 0 4px;line-height:1.6;&quot;&gt;- city: String&lt;br/&gt;- houseNumber: String&lt;br/&gt;- street: String&lt;br/&gt;- id: Long&lt;br/&gt;- flatNumber: String&lt;br/&gt;- zipCode: String&lt;/p&gt;&lt;hr size=&quot;1&quot;/&gt;&lt;p style=&quot;margin:0 0 0 4px;line-height:1.6;&quot;&gt;+ getCity(): String&lt;br/&gt;+ setFlatNumber(String): void&lt;br/&gt;+ getId(): Long&lt;br/&gt;+ getZipCode(): String&lt;br/&gt;+ getStreet(): String&lt;br/&gt;+ getHouseNumber(): String&lt;br/&gt;+ getFlatNumber(): String&lt;br/&gt;+ setId(Long): void&lt;br/&gt;+ setCity(String): void&lt;br/&gt;+ setHouseNumber(String): void&lt;br/&gt;+ setZipCode(String): void&lt;br/&gt;+ setStreet(String): void&lt;/p&gt;" style="verticalAlign=top;align=left;overflow=fill;fontSize=14;fontFamily=Helvetica;html=1;rounded=0;shadow=0;comic=0;labelBackgroundColor=none;strokeWidth=1;fillColor=#d5e8d4;strokeColor=#82b366;" vertex="1" parent="1">
          <mxGeometry x="3240" y="-160" width="320" height="505" as="geometry" />
        </mxCell>
        <mxCell id="gj-kkhx7KfFzgqiumkQl-2" value="&lt;p style=&quot;margin:0px;margin-top:4px;text-align:center;&quot;&gt;&lt;b&gt;Auditorium&lt;/b&gt;&lt;/p&gt;&lt;hr size=&quot;1&quot;/&gt;&lt;p style=&quot;margin:0 0 0 4px;line-height:1.6;&quot;&gt;+ Auditorium(): &lt;/p&gt;&lt;hr size=&quot;1&quot;/&gt;&lt;p style=&quot;margin:0 0 0 4px;line-height:1.6;&quot;&gt;- number: Integer&lt;br/&gt;- date: LocalDate&lt;br/&gt;- seoBlock: SeoBlock&lt;br/&gt;- description: String&lt;br/&gt;- bannerUrl: String&lt;br/&gt;- pictures: List&amp;lt;AuditoriumPicture&amp;gt;&lt;br/&gt;- schemeUrl: String&lt;br/&gt;- theater: Theater&lt;br/&gt;- schedules: List&amp;lt;Schedule&amp;gt;&lt;br/&gt;- id: Long&lt;/p&gt;&lt;hr size=&quot;1&quot;/&gt;&lt;p style=&quot;margin:0 0 0 4px;line-height:1.6;&quot;&gt;+ getNumber(): Integer&lt;br/&gt;+ getId(): Long&lt;br/&gt;+ getDescription(): String&lt;br/&gt;+ getDate(): LocalDate&lt;br/&gt;+ setSchemeUrl(String): void&lt;br/&gt;+ setSchedules(List&amp;lt;Schedule&amp;gt;): void&lt;br/&gt;+ setSeoBlock(SeoBlock): void&lt;br/&gt;+ getSchemeUrl(): String&lt;br/&gt;+ getBannerUrl(): String&lt;br/&gt;+ getTheater(): Theater&lt;br/&gt;+ getPictures(): List&amp;lt;AuditoriumPicture&amp;gt;&lt;br/&gt;+ setDate(LocalDate): void&lt;br/&gt;+ setId(Long): void&lt;br/&gt;+ getSchedules(): List&amp;lt;Schedule&amp;gt;&lt;br/&gt;+ setTheater(Theater): void&lt;br/&gt;+ setNumber(Integer): void&lt;br/&gt;+ setPictures(List&amp;lt;AuditoriumPicture&amp;gt;): void&lt;br/&gt;+ setBannerUrl(String): void&lt;br/&gt;+ setDescription(String): void&lt;br/&gt;+ getSeoBlock(): SeoBlock&lt;/p&gt;" style="verticalAlign=top;align=left;overflow=fill;fontSize=14;fontFamily=Helvetica;html=1;rounded=0;shadow=0;comic=0;labelBackgroundColor=none;strokeWidth=1;fillColor=#d5e8d4;strokeColor=#82b366;" vertex="1" parent="1">
          <mxGeometry x="3240" y="560" width="320" height="772" as="geometry" />
        </mxCell>
        <mxCell id="gj-kkhx7KfFzgqiumkQl-3" value="&lt;p style=&quot;margin:0px;margin-top:4px;text-align:center;&quot;&gt;&lt;b&gt;AuditoriumPicture&lt;/b&gt;&lt;/p&gt;&lt;hr size=&quot;1&quot;/&gt;&lt;p style=&quot;margin:0 0 0 4px;line-height:1.6;&quot;&gt;+ AuditoriumPicture(): &lt;/p&gt;&lt;hr size=&quot;1&quot;/&gt;&lt;p style=&quot;margin:0 0 0 4px;line-height:1.6;&quot;&gt;- id: Long&lt;br/&gt;- path: String&lt;br/&gt;- auditorium: Auditorium&lt;/p&gt;&lt;hr size=&quot;1&quot;/&gt;&lt;p style=&quot;margin:0 0 0 4px;line-height:1.6;&quot;&gt;+ getId(): Long&lt;br/&gt;+ getPath(): String&lt;br/&gt;+ getAuditorium(): Auditorium&lt;br/&gt;+ setId(Long): void&lt;br/&gt;+ setPath(String): void&lt;br/&gt;+ setAuditorium(Auditorium): void&lt;/p&gt;" style="verticalAlign=top;align=left;overflow=fill;fontSize=14;fontFamily=Helvetica;html=1;rounded=0;shadow=0;comic=0;labelBackgroundColor=none;strokeWidth=1;fillColor=#d5e8d4;strokeColor=#82b366;" vertex="1" parent="1">
          <mxGeometry x="3720" y="560" width="244" height="302" as="geometry" />
        </mxCell>
        <mxCell id="gj-kkhx7KfFzgqiumkQl-4" value="&lt;p style=&quot;margin:0px;margin-top:4px;text-align:center;&quot;&gt;&lt;b&gt;Contact&lt;/b&gt;&lt;/p&gt;&lt;hr size=&quot;1&quot;/&gt;&lt;p style=&quot;margin:0 0 0 4px;line-height:1.6;&quot;&gt;+ Contact(): &lt;/p&gt;&lt;hr size=&quot;1&quot;/&gt;&lt;p style=&quot;margin:0 0 0 4px;line-height:1.6;&quot;&gt;- coordinates: String&lt;br/&gt;- id: Long&lt;br/&gt;- address: String&lt;br/&gt;- title: String&lt;/p&gt;&lt;hr size=&quot;1&quot;/&gt;&lt;p style=&quot;margin:0 0 0 4px;line-height:1.6;&quot;&gt;+ getId(): Long&lt;br/&gt;+ getTitle(): String&lt;br/&gt;+ getAddress(): String&lt;br/&gt;+ getCoordinates(): String&lt;br/&gt;+ setId(Long): void&lt;br/&gt;+ setTitle(String): void&lt;br/&gt;+ setAddress(String): void&lt;br/&gt;+ setCoordinates(String): void&lt;/p&gt;" style="verticalAlign=top;align=left;overflow=fill;fontSize=14;fontFamily=Helvetica;html=1;rounded=0;shadow=0;comic=0;labelBackgroundColor=none;strokeWidth=1;fillColor=#d5e8d4;strokeColor=#82b366;" vertex="1" parent="1">
          <mxGeometry x="3240" y="1558.5" width="320" height="372" as="geometry" />
        </mxCell>
        <mxCell id="gj-kkhx7KfFzgqiumkQl-5" value="&lt;p style=&quot;margin:0px;margin-top:4px;text-align:center;&quot;&gt;&lt;b&gt;EditPage&lt;/b&gt;&lt;/p&gt;&lt;hr size=&quot;1&quot;/&gt;&lt;p style=&quot;margin:0 0 0 4px;line-height:1.6;&quot;&gt;+ EditPage(): &lt;/p&gt;&lt;hr size=&quot;1&quot;/&gt;&lt;p style=&quot;margin:0 0 0 4px;line-height:1.6;&quot;&gt;- id: Long&lt;br/&gt;- title: String&lt;br/&gt;- description: String&lt;br/&gt;- seoBlock: SeoBlock&lt;br/&gt;- videoUrl: String&lt;br/&gt;- type: EditPageType&lt;br/&gt;- pictures: List&amp;lt;EditPagePicture&amp;gt;&lt;br/&gt;- bannerUrl: String&lt;/p&gt;&lt;hr size=&quot;1&quot;/&gt;&lt;p style=&quot;margin:0 0 0 4px;line-height:1.6;&quot;&gt;+ getId(): Long&lt;br/&gt;+ getTitle(): String&lt;br/&gt;+ setDescription(String): void&lt;br/&gt;+ getDescription(): String&lt;br/&gt;+ setBannerUrl(String): void&lt;br/&gt;+ setType(EditPageType): void&lt;br/&gt;+ getBannerUrl(): String&lt;br/&gt;+ getPictures(): List&amp;lt;EditPagePicture&amp;gt;&lt;br/&gt;+ getVideoUrl(): String&lt;br/&gt;+ setTitle(String): void&lt;br/&gt;+ setPictures(List&amp;lt;EditPagePicture&amp;gt;): void&lt;br/&gt;+ setSeoBlock(SeoBlock): void&lt;br/&gt;+ setVideoUrl(String): void&lt;br/&gt;+ getSeoBlock(): SeoBlock&lt;br/&gt;+ getType(): EditPageType&lt;br/&gt;+ setId(Long): void&lt;/p&gt;" style="verticalAlign=top;align=left;overflow=fill;fontSize=14;fontFamily=Helvetica;html=1;rounded=0;shadow=0;comic=0;labelBackgroundColor=none;strokeWidth=1;fillColor=#d5e8d4;strokeColor=#82b366;" vertex="1" parent="1">
          <mxGeometry x="3240" y="2120" width="320" height="635" as="geometry" />
        </mxCell>
        <mxCell id="gj-kkhx7KfFzgqiumkQl-6" value="&lt;p style=&quot;margin:0px;margin-top:4px;text-align:center;&quot;&gt;&lt;b&gt;EditPagePicture&lt;/b&gt;&lt;/p&gt;&lt;hr size=&quot;1&quot;/&gt;&lt;p style=&quot;margin:0 0 0 4px;line-height:1.6;&quot;&gt;+ EditPagePicture(): &lt;/p&gt;&lt;hr size=&quot;1&quot;/&gt;&lt;p style=&quot;margin:0 0 0 4px;line-height:1.6;&quot;&gt;- editPage: EditPage&lt;br/&gt;- path: String&lt;br/&gt;- id: Long&lt;/p&gt;&lt;hr size=&quot;1&quot;/&gt;&lt;p style=&quot;margin:0 0 0 4px;line-height:1.6;&quot;&gt;+ getId(): Long&lt;br/&gt;+ getPath(): String&lt;br/&gt;+ getEditPage(): EditPage&lt;br/&gt;+ setId(Long): void&lt;br/&gt;+ setPath(String): void&lt;br/&gt;+ setEditPage(EditPage): void&lt;/p&gt;" style="verticalAlign=top;align=left;overflow=fill;fontSize=14;fontFamily=Helvetica;html=1;rounded=0;shadow=0;comic=0;labelBackgroundColor=none;strokeWidth=1;fillColor=#d5e8d4;strokeColor=#82b366;" vertex="1" parent="1">
          <mxGeometry x="3720" y="2458" width="240" height="302" as="geometry" />
        </mxCell>
        <mxCell id="gj-kkhx7KfFzgqiumkQl-7" value="&lt;p style=&quot;margin:0px;margin-top:4px;text-align:center;&quot;&gt;&lt;i&gt;&amp;lt;&amp;lt;enumeration&amp;gt;&amp;gt;&lt;/i&gt;&lt;br/&gt;&lt;b&gt;EditPageType&lt;/b&gt;&lt;/p&gt;&lt;hr size=&quot;1&quot;/&gt;&lt;p style=&quot;margin:0 0 0 4px;line-height:1.6;&quot;&gt;+ EditPageType(): &lt;/p&gt;&lt;hr size=&quot;1&quot;/&gt;&lt;p style=&quot;margin:0 0 0 4px;line-height:1.6;&quot;&gt;+ VIP_ROOM: &lt;br/&gt;+ ADVERTISING: &lt;br/&gt;+ ABOUT: &lt;br/&gt;+ CHILD_ROOM: &lt;br/&gt;+ CAFE_BAR: &lt;/p&gt;&lt;hr size=&quot;1&quot;/&gt;&lt;p style=&quot;margin:0 0 0 4px;line-height:1.6;&quot;&gt;+ values(): EditPageType[]&lt;br/&gt;+ valueOf(String): EditPageType&lt;/p&gt;" style="verticalAlign=top;align=left;overflow=fill;fontSize=14;fontFamily=Helvetica;html=1;rounded=0;shadow=0;comic=0;labelBackgroundColor=none;strokeWidth=1;fillColor=#d5e8d4;strokeColor=#82b366;" vertex="1" parent="1">
          <mxGeometry x="3720" y="2120" width="240" height="269" as="geometry" />
        </mxCell>
        <mxCell id="gj-kkhx7KfFzgqiumkQl-8" value="&lt;p style=&quot;margin:0px;margin-top:4px;text-align:center;&quot;&gt;&lt;i&gt;&amp;lt;&amp;lt;enumeration&amp;gt;&amp;gt;&lt;/i&gt;&lt;br/&gt;&lt;b&gt;Gender&lt;/b&gt;&lt;/p&gt;&lt;hr size=&quot;1&quot;/&gt;&lt;p style=&quot;margin:0 0 0 4px;line-height:1.6;&quot;&gt;+ Gender(): &lt;/p&gt;&lt;hr size=&quot;1&quot;/&gt;&lt;p style=&quot;margin:0 0 0 4px;line-height:1.6;&quot;&gt;+ MALE: &lt;br/&gt;+ FEMALE: &lt;/p&gt;&lt;hr size=&quot;1&quot;/&gt;&lt;p style=&quot;margin:0 0 0 4px;line-height:1.6;&quot;&gt;+ values(): Gender[]&lt;br/&gt;+ valueOf(String): Gender&lt;/p&gt;" style="verticalAlign=top;align=left;overflow=fill;fontSize=14;fontFamily=Helvetica;html=1;rounded=0;shadow=0;comic=0;labelBackgroundColor=none;strokeWidth=1;" vertex="1" parent="1">
          <mxGeometry x="4524" y="-21" width="194" height="148" as="geometry" />
        </mxCell>
        <mxCell id="gj-kkhx7KfFzgqiumkQl-9" value="&lt;p style=&quot;margin:0px;margin-top:4px;text-align:center;&quot;&gt;&lt;i&gt;&amp;lt;&amp;lt;enumeration&amp;gt;&amp;gt;&lt;/i&gt;&lt;br/&gt;&lt;b&gt;Language&lt;/b&gt;&lt;/p&gt;&lt;hr size=&quot;1&quot;/&gt;&lt;p style=&quot;margin:0 0 0 4px;line-height:1.6;&quot;&gt;+ Language(): &lt;/p&gt;&lt;hr size=&quot;1&quot;/&gt;&lt;p style=&quot;margin:0 0 0 4px;line-height:1.6;&quot;&gt;+ ENGLISH: &lt;br/&gt;+ UKRAINIAN: &lt;/p&gt;&lt;hr size=&quot;1&quot;/&gt;&lt;p style=&quot;margin:0 0 0 4px;line-height:1.6;&quot;&gt;+ values(): Language[]&lt;br/&gt;+ valueOf(String): Language&lt;/p&gt;" style="verticalAlign=top;align=left;overflow=fill;fontSize=14;fontFamily=Helvetica;html=1;rounded=0;shadow=0;comic=0;labelBackgroundColor=none;strokeWidth=1;" vertex="1" parent="1">
          <mxGeometry x="4517" y="361" width="208" height="148" as="geometry" />
        </mxCell>
        <mxCell id="gj-kkhx7KfFzgqiumkQl-10" value="&lt;p style=&quot;margin:0px;margin-top:4px;text-align:center;&quot;&gt;&lt;b&gt;MainPageBanner&lt;/b&gt;&lt;/p&gt;&lt;hr size=&quot;1&quot;/&gt;&lt;p style=&quot;margin:0 0 0 4px;line-height:1.6;&quot;&gt;+ MainPageBanner(): &lt;/p&gt;&lt;hr size=&quot;1&quot;/&gt;&lt;p style=&quot;margin:0 0 0 4px;line-height:1.6;&quot;&gt;- place: Replacement&lt;br/&gt;- path: String&lt;br/&gt;- id: Long&lt;br/&gt;- text: String&lt;/p&gt;&lt;hr size=&quot;1&quot;/&gt;&lt;p style=&quot;margin:0 0 0 4px;line-height:1.6;&quot;&gt;+ getId(): Long&lt;br/&gt;+ getPath(): String&lt;br/&gt;+ getText(): String&lt;br/&gt;+ getPlace(): Replacement&lt;br/&gt;+ setId(Long): void&lt;br/&gt;+ setPath(String): void&lt;br/&gt;+ setText(String): void&lt;br/&gt;+ setPlace(Replacement): void&lt;/p&gt;" style="verticalAlign=top;align=left;overflow=fill;fontSize=14;fontFamily=Helvetica;html=1;rounded=0;shadow=0;comic=0;labelBackgroundColor=none;strokeWidth=1;" vertex="1" parent="1">
          <mxGeometry x="5452" y="1548" width="222" height="372" as="geometry" />
        </mxCell>
        <mxCell id="gj-kkhx7KfFzgqiumkQl-11" value="&lt;p style=&quot;margin:0px;margin-top:4px;text-align:center;&quot;&gt;&lt;b&gt;MainPageInfo&lt;/b&gt;&lt;/p&gt;&lt;hr size=&quot;1&quot;/&gt;&lt;p style=&quot;margin:0 0 0 4px;line-height:1.6;&quot;&gt;+ MainPageInfo(): &lt;br/&gt;+ MainPageInfo(Long, String, String, String, SeoBlock): &lt;/p&gt;&lt;hr size=&quot;1&quot;/&gt;&lt;p style=&quot;margin:0 0 0 4px;line-height:1.6;&quot;&gt;- id: Long&lt;br/&gt;- seoBlock: SeoBlock&lt;br/&gt;- phoneNumber2: String&lt;br/&gt;- seoText: String&lt;br/&gt;- phoneNumber1: String&lt;/p&gt;&lt;hr size=&quot;1&quot;/&gt;&lt;p style=&quot;margin:0 0 0 4px;line-height:1.6;&quot;&gt;+ getId(): Long&lt;br/&gt;+ getPhoneNumber1(): String&lt;br/&gt;+ getPhoneNumber2(): String&lt;br/&gt;+ getSeoText(): String&lt;br/&gt;+ getSeoBlock(): SeoBlock&lt;br/&gt;+ setId(Long): void&lt;br/&gt;+ setPhoneNumber1(String): void&lt;br/&gt;+ setPhoneNumber2(String): void&lt;br/&gt;+ setSeoBlock(SeoBlock): void&lt;br/&gt;+ setSeoText(String): void&lt;/p&gt;" style="verticalAlign=top;align=left;overflow=fill;fontSize=14;fontFamily=Helvetica;html=1;rounded=0;shadow=0;comic=0;labelBackgroundColor=none;strokeWidth=1;" vertex="1" parent="1">
          <mxGeometry x="4490" y="1548" width="378" height="462" as="geometry" />
        </mxCell>
        <mxCell id="gj-kkhx7KfFzgqiumkQl-12" value="&lt;p style=&quot;margin:0px;margin-top:4px;text-align:center;&quot;&gt;&lt;b&gt;Movie&lt;/b&gt;&lt;/p&gt;&lt;hr size=&quot;1&quot;/&gt;&lt;p style=&quot;margin:0 0 0 4px;line-height:1.6;&quot;&gt;+ Movie(): &lt;/p&gt;&lt;hr size=&quot;1&quot;/&gt;&lt;p style=&quot;margin:0 0 0 4px;line-height:1.6;&quot;&gt;- ageCenz: Integer&lt;br/&gt;- uaTitle: String&lt;br/&gt;- has2D: Boolean&lt;br/&gt;- pictures: List&amp;lt;MoviePicture&amp;gt;&lt;br/&gt;- id: Long&lt;br/&gt;- seoBlock: SeoBlock&lt;br/&gt;- description: String&lt;br/&gt;- schedules: List&amp;lt;Schedule&amp;gt;&lt;br/&gt;- nativeTitle: String&lt;br/&gt;- trailerUrl: String&lt;br/&gt;- posterUrl: String&lt;br/&gt;- has3D: Boolean&lt;br/&gt;- hasImax: Boolean&lt;br/&gt;- details: MovieDetails&lt;/p&gt;&lt;hr size=&quot;1&quot;/&gt;&lt;p style=&quot;margin:0 0 0 4px;line-height:1.6;&quot;&gt;+ getId(): Long&lt;br/&gt;+ getNativeTitle(): String&lt;br/&gt;+ getUaTitle(): String&lt;br/&gt;+ setSeoBlock(SeoBlock): void&lt;br/&gt;+ getAgeCenz(): Integer&lt;br/&gt;+ setNativeTitle(String): void&lt;br/&gt;+ setDescription(String): void&lt;br/&gt;+ setDetails(MovieDetails): void&lt;br/&gt;+ getDescription(): String&lt;br/&gt;+ getSchedules(): List&amp;lt;Schedule&amp;gt;&lt;br/&gt;+ setHas2D(Boolean): void&lt;br/&gt;+ setHasImax(Boolean): void&lt;br/&gt;+ setAgeCenz(Integer): void&lt;br/&gt;+ setHas3D(Boolean): void&lt;br/&gt;+ getDetails(): MovieDetails&lt;br/&gt;+ setUaTitle(String): void&lt;br/&gt;+ setPictures(List&amp;lt;MoviePicture&amp;gt;): void&lt;br/&gt;+ getPosterUrl(): String&lt;br/&gt;+ getTrailerUrl(): String&lt;br/&gt;+ setSchedules(List&amp;lt;Schedule&amp;gt;): void&lt;br/&gt;+ getPictures(): List&amp;lt;MoviePicture&amp;gt;&lt;br/&gt;+ setTrailerUrl(String): void&lt;br/&gt;+ getHas2D(): Boolean&lt;br/&gt;+ getHas3D(): Boolean&lt;br/&gt;+ getSeoBlock(): SeoBlock&lt;br/&gt;+ getHasImax(): Boolean&lt;br/&gt;+ setPosterUrl(String): void&lt;br/&gt;+ setId(Long): void&lt;/p&gt;" style="verticalAlign=top;align=left;overflow=fill;fontSize=14;fontFamily=Helvetica;html=1;rounded=0;shadow=0;comic=0;labelBackgroundColor=none;strokeWidth=1;" vertex="1" parent="1">
          <mxGeometry x="5120" y="-172" width="281" height="1042" as="geometry" />
        </mxCell>
        <mxCell id="gj-kkhx7KfFzgqiumkQl-13" value="&lt;p style=&quot;margin:0px;margin-top:4px;text-align:center;&quot;&gt;&lt;b&gt;MovieDetails&lt;/b&gt;&lt;/p&gt;&lt;hr size=&quot;1&quot;/&gt;&lt;p style=&quot;margin:0 0 0 4px;line-height:1.6;&quot;&gt;+ MovieDetails(): &lt;/p&gt;&lt;hr size=&quot;1&quot;/&gt;&lt;p style=&quot;margin:0 0 0 4px;line-height:1.6;&quot;&gt;- country: String&lt;br/&gt;- time: String&lt;br/&gt;- year: String&lt;br/&gt;- screenwriters: String&lt;br/&gt;- compositors: String&lt;br/&gt;- budget: String&lt;br/&gt;- genres: String&lt;br/&gt;- actors: String&lt;br/&gt;- producers: String&lt;br/&gt;- directors: String&lt;/p&gt;&lt;hr size=&quot;1&quot;/&gt;&lt;p style=&quot;margin:0 0 0 4px;line-height:1.6;&quot;&gt;+ getYear(): String&lt;br/&gt;+ setTime(String): void&lt;br/&gt;+ setActors(String): void&lt;br/&gt;+ setBudget(String): void&lt;br/&gt;+ getCountry(): String&lt;br/&gt;+ getActors(): String&lt;br/&gt;+ getDirectors(): String&lt;br/&gt;+ setScreenwriters(String): void&lt;br/&gt;+ setProducers(String): void&lt;br/&gt;+ setCompositors(String): void&lt;br/&gt;+ setCountry(String): void&lt;br/&gt;+ setGenres(String): void&lt;br/&gt;+ setDirectors(String): void&lt;br/&gt;+ getScreenwriters(): String&lt;br/&gt;+ getCompositors(): String&lt;br/&gt;+ getTime(): String&lt;br/&gt;+ setYear(String): void&lt;br/&gt;+ getProducers(): String&lt;br/&gt;+ getGenres(): String&lt;br/&gt;+ getBudget(): String&lt;br/&gt;+ EMPTY(): MovieDetails&lt;/p&gt;" style="verticalAlign=top;align=left;overflow=fill;fontSize=14;fontFamily=Helvetica;html=1;rounded=0;shadow=0;comic=0;labelBackgroundColor=none;strokeWidth=1;" vertex="1" parent="1">
          <mxGeometry x="5446" y="-172" width="233" height="792" as="geometry" />
        </mxCell>
        <mxCell id="gj-kkhx7KfFzgqiumkQl-14" value="&lt;p style=&quot;margin:0px;margin-top:4px;text-align:center;&quot;&gt;&lt;b&gt;MoviePicture&lt;/b&gt;&lt;/p&gt;&lt;hr size=&quot;1&quot;/&gt;&lt;p style=&quot;margin:0 0 0 4px;line-height:1.6;&quot;&gt;+ MoviePicture(): &lt;/p&gt;&lt;hr size=&quot;1&quot;/&gt;&lt;p style=&quot;margin:0 0 0 4px;line-height:1.6;&quot;&gt;- path: String&lt;br/&gt;- id: Long&lt;br/&gt;- movie: Movie&lt;/p&gt;&lt;hr size=&quot;1&quot;/&gt;&lt;p style=&quot;margin:0 0 0 4px;line-height:1.6;&quot;&gt;+ getId(): Long&lt;br/&gt;+ getPath(): String&lt;br/&gt;+ getMovie(): Movie&lt;br/&gt;+ setId(Long): void&lt;br/&gt;+ setPath(String): void&lt;br/&gt;+ setMovie(Movie): void&lt;/p&gt;" style="verticalAlign=top;align=left;overflow=fill;fontSize=14;fontFamily=Helvetica;html=1;rounded=0;shadow=0;comic=0;labelBackgroundColor=none;strokeWidth=1;" vertex="1" parent="1">
          <mxGeometry x="4490" y="2017" width="184" height="303" as="geometry" />
        </mxCell>
        <mxCell id="gj-kkhx7KfFzgqiumkQl-15" value="&lt;p style=&quot;margin:0px;margin-top:4px;text-align:center;&quot;&gt;&lt;b&gt;News&lt;/b&gt;&lt;/p&gt;&lt;hr size=&quot;1&quot;/&gt;&lt;p style=&quot;margin:0 0 0 4px;line-height:1.6;&quot;&gt;+ News(): &lt;/p&gt;&lt;hr size=&quot;1&quot;/&gt;&lt;p style=&quot;margin:0 0 0 4px;line-height:1.6;&quot;&gt;- trailerUrl: String&lt;br/&gt;- content: String&lt;br/&gt;- pictureUrl: String&lt;br/&gt;- id: Long&lt;br/&gt;- date: LocalDate&lt;br/&gt;- title: String&lt;br/&gt;- seoBlock: SeoBlock&lt;br/&gt;- status: Status&lt;/p&gt;&lt;hr size=&quot;1&quot;/&gt;&lt;p style=&quot;margin:0 0 0 4px;line-height:1.6;&quot;&gt;+ getPictureUrl(): String&lt;br/&gt;+ getId(): Long&lt;br/&gt;+ getTitle(): String&lt;br/&gt;+ setTrailerUrl(String): void&lt;br/&gt;+ setContent(String): void&lt;br/&gt;+ getContent(): String&lt;br/&gt;+ getDate(): LocalDate&lt;br/&gt;+ getTrailerUrl(): String&lt;br/&gt;+ getStatus(): Status&lt;br/&gt;+ setPictureUrl(String): void&lt;br/&gt;+ getSeoBlock(): SeoBlock&lt;br/&gt;+ setTitle(String): void&lt;br/&gt;+ setSeoBlock(SeoBlock): void&lt;br/&gt;+ setDate(LocalDate): void&lt;br/&gt;+ setId(Long): void&lt;br/&gt;+ setStatus(Status): void&lt;/p&gt;" style="verticalAlign=top;align=left;overflow=fill;fontSize=14;fontFamily=Helvetica;html=1;rounded=0;shadow=0;comic=0;labelBackgroundColor=none;strokeWidth=1;" vertex="1" parent="1">
          <mxGeometry x="5116" y="895" width="222" height="635" as="geometry" />
        </mxCell>
        <mxCell id="gj-kkhx7KfFzgqiumkQl-16" value="&lt;p style=&quot;margin:0px;margin-top:4px;text-align:center;&quot;&gt;&lt;i&gt;&amp;lt;&amp;lt;enumeration&amp;gt;&amp;gt;&lt;/i&gt;&lt;br/&gt;&lt;b&gt;Permission&lt;/b&gt;&lt;/p&gt;&lt;hr size=&quot;1&quot;/&gt;&lt;p style=&quot;margin:0 0 0 4px;line-height:1.6;&quot;&gt;+ Permission(): &lt;/p&gt;&lt;hr size=&quot;1&quot;/&gt;&lt;p style=&quot;margin:0 0 0 4px;line-height:1.6;&quot;&gt;+ WRITE_IN_ADMIN_PART: &lt;br/&gt;+ READ_IN_PUBLIC_PART: &lt;br/&gt;+ READ_IN_ADMIN_PART: &lt;br/&gt;+ WRITE_IN_PUBLIC_PART: &lt;/p&gt;&lt;hr size=&quot;1&quot;/&gt;&lt;p style=&quot;margin:0 0 0 4px;line-height:1.6;&quot;&gt;+ values(): Permission[]&lt;br/&gt;+ valueOf(String): Permission&lt;/p&gt;" style="verticalAlign=top;align=left;overflow=fill;fontSize=14;fontFamily=Helvetica;html=1;rounded=0;shadow=0;comic=0;labelBackgroundColor=none;strokeWidth=1;" vertex="1" parent="1">
          <mxGeometry x="4514" y="147" width="215" height="194" as="geometry" />
        </mxCell>
        <mxCell id="gj-kkhx7KfFzgqiumkQl-17" value="&lt;p style=&quot;margin:0px;margin-top:4px;text-align:center;&quot;&gt;&lt;b&gt;Promotion&lt;/b&gt;&lt;/p&gt;&lt;hr size=&quot;1&quot;/&gt;&lt;p style=&quot;margin:0 0 0 4px;line-height:1.6;&quot;&gt;+ Promotion(): &lt;/p&gt;&lt;hr size=&quot;1&quot;/&gt;&lt;p style=&quot;margin:0 0 0 4px;line-height:1.6;&quot;&gt;- id: Long&lt;br/&gt;- status: Status&lt;br/&gt;- content: String&lt;br/&gt;- pictureUrl: String&lt;br/&gt;- seoBlock: SeoBlock&lt;br/&gt;- trailerUrl: String&lt;br/&gt;- title: String&lt;br/&gt;- date: LocalDate&lt;/p&gt;&lt;hr size=&quot;1&quot;/&gt;&lt;p style=&quot;margin:0 0 0 4px;line-height:1.6;&quot;&gt;+ getId(): Long&lt;br/&gt;+ getTitle(): String&lt;br/&gt;+ getContent(): String&lt;br/&gt;+ getDate(): LocalDate&lt;br/&gt;+ setContent(String): void&lt;br/&gt;+ setTitle(String): void&lt;br/&gt;+ setDate(LocalDate): void&lt;br/&gt;+ getPictureUrl(): String&lt;br/&gt;+ setTrailerUrl(String): void&lt;br/&gt;+ getTrailerUrl(): String&lt;br/&gt;+ setPictureUrl(String): void&lt;br/&gt;+ setStatus(Status): void&lt;br/&gt;+ getStatus(): Status&lt;br/&gt;+ getSeoBlock(): SeoBlock&lt;br/&gt;+ setId(Long): void&lt;br/&gt;+ setSeoBlock(SeoBlock): void&lt;/p&gt;" style="verticalAlign=top;align=left;overflow=fill;fontSize=14;fontFamily=Helvetica;html=1;rounded=0;shadow=0;comic=0;labelBackgroundColor=none;strokeWidth=1;" vertex="1" parent="1">
          <mxGeometry x="5383" y="895" width="222" height="635" as="geometry" />
        </mxCell>
        <mxCell id="gj-kkhx7KfFzgqiumkQl-18" value="&lt;p style=&quot;margin:0px;margin-top:4px;text-align:center;&quot;&gt;&lt;i&gt;&amp;lt;&amp;lt;enumeration&amp;gt;&amp;gt;&lt;/i&gt;&lt;br/&gt;&lt;b&gt;Replacement&lt;/b&gt;&lt;/p&gt;&lt;hr size=&quot;1&quot;/&gt;&lt;p style=&quot;margin:0 0 0 4px;line-height:1.6;&quot;&gt;+ Replacement(): &lt;/p&gt;&lt;hr size=&quot;1&quot;/&gt;&lt;p style=&quot;margin:0 0 0 4px;line-height:1.6;&quot;&gt;+ BOTTOM_PROMOTION: &lt;br/&gt;+ SLASH_BANNER: &lt;br/&gt;+ UP_BANNER: &lt;/p&gt;&lt;hr size=&quot;1&quot;/&gt;&lt;p style=&quot;margin:0 0 0 4px;line-height:1.6;&quot;&gt;+ values(): Replacement[]&lt;br/&gt;+ valueOf(String): Replacement&lt;/p&gt;" style="verticalAlign=top;align=left;overflow=fill;fontSize=14;fontFamily=Helvetica;html=1;rounded=0;shadow=0;comic=0;labelBackgroundColor=none;strokeWidth=1;" vertex="1" parent="1">
          <mxGeometry x="5174" y="1629" width="228" height="231" as="geometry" />
        </mxCell>
        <mxCell id="gj-kkhx7KfFzgqiumkQl-19" value="&lt;p style=&quot;margin:0px;margin-top:4px;text-align:center;&quot;&gt;&lt;i&gt;&amp;lt;&amp;lt;enumeration&amp;gt;&amp;gt;&lt;/i&gt;&lt;br/&gt;&lt;b&gt;Role&lt;/b&gt;&lt;/p&gt;&lt;hr size=&quot;1&quot;/&gt;&lt;p style=&quot;margin:0 0 0 4px;line-height:1.6;&quot;&gt;- Role(Set&amp;lt;Permission&amp;gt;): &lt;/p&gt;&lt;hr size=&quot;1&quot;/&gt;&lt;p style=&quot;margin:0 0 0 4px;line-height:1.6;&quot;&gt;+ ADMIN: &lt;br/&gt;+ SERVANT: &lt;br/&gt;+ GUEST: &lt;br/&gt;- permissions: Set&amp;lt;Permission&amp;gt;&lt;br/&gt;+ USER: &lt;/p&gt;&lt;hr size=&quot;1&quot;/&gt;&lt;p style=&quot;margin:0 0 0 4px;line-height:1.6;&quot;&gt;+ values(): Role[]&lt;br/&gt;+ getPermissions(Role): List&amp;lt;String&amp;gt;&lt;br/&gt;+ valueOf(String): Role&lt;/p&gt;" style="verticalAlign=top;align=left;overflow=fill;fontSize=14;fontFamily=Helvetica;html=1;rounded=0;shadow=0;comic=0;labelBackgroundColor=none;strokeWidth=1;" vertex="1" parent="1">
          <mxGeometry x="4490" y="529" width="262" height="240" as="geometry" />
        </mxCell>
        <mxCell id="gj-kkhx7KfFzgqiumkQl-20" value="&lt;p style=&quot;margin:0px;margin-top:4px;text-align:center;&quot;&gt;&lt;b&gt;Schedule&lt;/b&gt;&lt;/p&gt;&lt;hr size=&quot;1&quot;/&gt;&lt;p style=&quot;margin:0 0 0 4px;line-height:1.6;&quot;&gt;+ Schedule(): &lt;br/&gt;+ Schedule(Auditorium, Movie, LocalDate, LocalTime): &lt;/p&gt;&lt;hr size=&quot;1&quot;/&gt;&lt;p style=&quot;margin:0 0 0 4px;line-height:1.6;&quot;&gt;- key: ScheduleCompositeKey&lt;/p&gt;&lt;hr size=&quot;1&quot;/&gt;&lt;p style=&quot;margin:0 0 0 4px;line-height:1.6;&quot;&gt;+ getKey(): ScheduleCompositeKey&lt;br/&gt;+ setKey(ScheduleCompositeKey): void&lt;/p&gt;" style="verticalAlign=top;align=left;overflow=fill;fontSize=14;fontFamily=Helvetica;html=1;rounded=0;shadow=0;comic=0;labelBackgroundColor=none;strokeWidth=1;" vertex="1" parent="1">
          <mxGeometry x="6436" y="1045" width="373" height="195" as="geometry" />
        </mxCell>
        <mxCell id="gj-kkhx7KfFzgqiumkQl-21" value="&lt;p style=&quot;margin:0px;margin-top:4px;text-align:center;&quot;&gt;&lt;b&gt;ScheduleCompositeKey&lt;/b&gt;&lt;/p&gt;&lt;hr size=&quot;1&quot;/&gt;&lt;p style=&quot;margin:0 0 0 4px;line-height:1.6;&quot;&gt;+ ScheduleCompositeKey(Auditorium, Movie, LocalDate, LocalTime): &lt;br/&gt;+ ScheduleCompositeKey(): &lt;/p&gt;&lt;hr size=&quot;1&quot;/&gt;&lt;p style=&quot;margin:0 0 0 4px;line-height:1.6;&quot;&gt;- movie: Movie&lt;br/&gt;- time: LocalTime&lt;br/&gt;- date: LocalDate&lt;br/&gt;- auditorium: Auditorium&lt;/p&gt;&lt;hr size=&quot;1&quot;/&gt;&lt;p style=&quot;margin:0 0 0 4px;line-height:1.6;&quot;&gt;+ getAuditorium(): Auditorium&lt;br/&gt;+ getMovie(): Movie&lt;br/&gt;+ getDate(): LocalDate&lt;br/&gt;+ getTime(): LocalTime&lt;br/&gt;# canEqual(Object): boolean&lt;br/&gt;+ hashCode(): int&lt;br/&gt;+ setAuditorium(Auditorium): void&lt;br/&gt;+ setMovie(Movie): void&lt;br/&gt;+ setDate(LocalDate): void&lt;br/&gt;+ toString(): String&lt;br/&gt;+ setTime(LocalTime): void&lt;br/&gt;+ equals(Object): boolean&lt;/p&gt;" style="verticalAlign=top;align=left;overflow=fill;fontSize=14;fontFamily=Helvetica;html=1;rounded=0;shadow=0;comic=0;labelBackgroundColor=none;strokeWidth=1;" vertex="1" parent="1">
          <mxGeometry x="5931" y="895" width="455" height="485" as="geometry" />
        </mxCell>
        <mxCell id="gj-kkhx7KfFzgqiumkQl-22" value="&lt;p style=&quot;margin:0px;margin-top:4px;text-align:center;&quot;&gt;&lt;b&gt;SeoBlock&lt;/b&gt;&lt;/p&gt;&lt;hr size=&quot;1&quot;/&gt;&lt;p style=&quot;margin:0 0 0 4px;line-height:1.6;&quot;&gt;+ SeoBlock(): &lt;/p&gt;&lt;hr size=&quot;1&quot;/&gt;&lt;p style=&quot;margin:0 0 0 4px;line-height:1.6;&quot;&gt;- keywords: String&lt;br/&gt;- description: String&lt;br/&gt;- id: Long&lt;br/&gt;- url: String&lt;br/&gt;- title: String&lt;/p&gt;&lt;hr size=&quot;1&quot;/&gt;&lt;p style=&quot;margin:0 0 0 4px;line-height:1.6;&quot;&gt;+ getId(): Long&lt;br/&gt;+ getUrl(): String&lt;br/&gt;+ getTitle(): String&lt;br/&gt;+ getKeywords(): String&lt;br/&gt;+ getDescription(): String&lt;br/&gt;+ setId(Long): void&lt;br/&gt;+ setUrl(String): void&lt;br/&gt;+ setTitle(String): void&lt;br/&gt;+ setKeywords(String): void&lt;br/&gt;+ setDescription(String): void&lt;/p&gt;" style="verticalAlign=top;align=left;overflow=fill;fontSize=14;fontFamily=Helvetica;html=1;rounded=0;shadow=0;comic=0;labelBackgroundColor=none;strokeWidth=1;" vertex="1" parent="1">
          <mxGeometry x="4913" y="1548" width="216" height="442" as="geometry" />
        </mxCell>
        <mxCell id="gj-kkhx7KfFzgqiumkQl-23" value="&lt;p style=&quot;margin:0px;margin-top:4px;text-align:center;&quot;&gt;&lt;i&gt;&amp;lt;&amp;lt;enumeration&amp;gt;&amp;gt;&lt;/i&gt;&lt;br/&gt;&lt;b&gt;Status&lt;/b&gt;&lt;/p&gt;&lt;hr size=&quot;1&quot;/&gt;&lt;p style=&quot;margin:0 0 0 4px;line-height:1.6;&quot;&gt;+ Status(): &lt;/p&gt;&lt;hr size=&quot;1&quot;/&gt;&lt;p style=&quot;margin:0 0 0 4px;line-height:1.6;&quot;&gt;+ OFF: &lt;br/&gt;+ ON: &lt;/p&gt;&lt;hr size=&quot;1&quot;/&gt;&lt;p style=&quot;margin:0 0 0 4px;line-height:1.6;&quot;&gt;+ valueOf(String): Status&lt;br/&gt;+ values(): Status[]&lt;/p&gt;" style="verticalAlign=top;align=left;overflow=fill;fontSize=14;fontFamily=Helvetica;html=1;rounded=0;shadow=0;comic=0;labelBackgroundColor=none;strokeWidth=1;" vertex="1" parent="1">
          <mxGeometry x="4719" y="2017" width="187" height="203" as="geometry" />
        </mxCell>
        <mxCell id="gj-kkhx7KfFzgqiumkQl-24" value="&lt;p style=&quot;margin:0px;margin-top:4px;text-align:center;&quot;&gt;&lt;b&gt;Theater&lt;/b&gt;&lt;/p&gt;&lt;hr size=&quot;1&quot;/&gt;&lt;p style=&quot;margin:0 0 0 4px;line-height:1.6;&quot;&gt;+ Theater(): &lt;/p&gt;&lt;hr size=&quot;1&quot;/&gt;&lt;p style=&quot;margin:0 0 0 4px;line-height:1.6;&quot;&gt;- conditions: String&lt;br/&gt;- bannerUrl: String&lt;br/&gt;- title: String&lt;br/&gt;- pictures: List&amp;lt;TheaterPicture&amp;gt;&lt;br/&gt;- auditoriums: List&amp;lt;Auditorium&amp;gt;&lt;br/&gt;- seoBlock: SeoBlock&lt;br/&gt;- id: Long&lt;br/&gt;- logoUrl: String&lt;br/&gt;- description: String&lt;/p&gt;&lt;hr size=&quot;1&quot;/&gt;&lt;p style=&quot;margin:0 0 0 4px;line-height:1.6;&quot;&gt;+ getId(): Long&lt;br/&gt;+ setSeoBlock(SeoBlock): void&lt;br/&gt;+ setDescription(String): void&lt;br/&gt;+ setConditions(String): void&lt;br/&gt;+ getTitle(): String&lt;br/&gt;+ setLogoUrl(String): void&lt;br/&gt;+ getDescription(): String&lt;br/&gt;+ getConditions(): String&lt;br/&gt;+ getLogoUrl(): String&lt;br/&gt;+ setId(Long): void&lt;br/&gt;+ setBannerUrl(String): void&lt;br/&gt;+ getBannerUrl(): String&lt;br/&gt;+ getPictures(): List&amp;lt;TheaterPicture&amp;gt;&lt;br/&gt;+ setPictures(List&amp;lt;TheaterPicture&amp;gt;): void&lt;br/&gt;+ getAuditoriums(): List&amp;lt;Auditorium&amp;gt;&lt;br/&gt;+ setAuditoriums(List&amp;lt;Auditorium&amp;gt;): void&lt;br/&gt;+ getSeoBlock(): SeoBlock&lt;br/&gt;+ setTitle(String): void&lt;/p&gt;" style="verticalAlign=top;align=left;overflow=fill;fontSize=14;fontFamily=Helvetica;html=1;rounded=0;shadow=0;comic=0;labelBackgroundColor=none;strokeWidth=1;" vertex="1" parent="1">
          <mxGeometry x="6080" y="-172" width="292" height="702" as="geometry" />
        </mxCell>
        <mxCell id="gj-kkhx7KfFzgqiumkQl-25" value="&lt;p style=&quot;margin:0px;margin-top:4px;text-align:center;&quot;&gt;&lt;b&gt;TheaterPicture&lt;/b&gt;&lt;/p&gt;&lt;hr size=&quot;1&quot;/&gt;&lt;p style=&quot;margin:0 0 0 4px;line-height:1.6;&quot;&gt;+ TheaterPicture(): &lt;/p&gt;&lt;hr size=&quot;1&quot;/&gt;&lt;p style=&quot;margin:0 0 0 4px;line-height:1.6;&quot;&gt;- theater: Theater&lt;br/&gt;- path: String&lt;br/&gt;- id: Long&lt;/p&gt;&lt;hr size=&quot;1&quot;/&gt;&lt;p style=&quot;margin:0 0 0 4px;line-height:1.6;&quot;&gt;+ getId(): Long&lt;br/&gt;+ getPath(): String&lt;br/&gt;+ getTheater(): Theater&lt;br/&gt;+ setId(Long): void&lt;br/&gt;+ setPath(String): void&lt;br/&gt;+ setTheater(Theater): void&lt;/p&gt;" style="verticalAlign=top;align=left;overflow=fill;fontSize=14;fontFamily=Helvetica;html=1;rounded=0;shadow=0;comic=0;labelBackgroundColor=none;strokeWidth=1;" vertex="1" parent="1">
          <mxGeometry x="6537" y="1548" width="206" height="302" as="geometry" />
        </mxCell>
        <mxCell id="gj-kkhx7KfFzgqiumkQl-26" value="&lt;p style=&quot;margin:0px;margin-top:4px;text-align:center;&quot;&gt;&lt;b&gt;User&lt;/b&gt;&lt;/p&gt;&lt;hr size=&quot;1&quot;/&gt;&lt;p style=&quot;margin:0 0 0 4px;line-height:1.6;&quot;&gt;+ User(): &lt;/p&gt;&lt;hr size=&quot;1&quot;/&gt;&lt;p style=&quot;margin:0 0 0 4px;line-height:1.6;&quot;&gt;- firstName: String&lt;br/&gt;- gender: Gender&lt;br/&gt;- nickName: String&lt;br/&gt;- registrationDate: LocalDate&lt;br/&gt;- phone: String&lt;br/&gt;- email: String&lt;br/&gt;- role: Role&lt;br/&gt;- language: Language&lt;br/&gt;- lastName: String&lt;br/&gt;- id: Long&lt;br/&gt;- cardNumber: String&lt;br/&gt;- address: Address&lt;br/&gt;- passHash: String&lt;br/&gt;- birthDate: LocalDate&lt;/p&gt;&lt;hr size=&quot;1&quot;/&gt;&lt;p style=&quot;margin:0 0 0 4px;line-height:1.6;&quot;&gt;+ getPhone(): String&lt;br/&gt;+ getId(): Long&lt;br/&gt;+ getRole(): Role&lt;br/&gt;+ setPassHash(String): void&lt;br/&gt;+ setAddress(Address): void&lt;br/&gt;+ getLanguage(): Language&lt;br/&gt;+ getBirthDate(): LocalDate&lt;br/&gt;+ getGender(): Gender&lt;br/&gt;+ getFirstName(): String&lt;br/&gt;+ setNickName(String): void&lt;br/&gt;+ getLastName(): String&lt;br/&gt;+ setRole(Role): void&lt;br/&gt;+ setPhone(String): void&lt;br/&gt;+ setBirthDate(LocalDate): void&lt;br/&gt;+ setEmail(String): void&lt;br/&gt;+ getNickName(): String&lt;br/&gt;+ setRegistrationDate(LocalDate): void&lt;br/&gt;+ getEmail(): String&lt;br/&gt;+ getAddress(): Address&lt;br/&gt;+ setFirstName(String): void&lt;br/&gt;+ getRegistrationDate(): LocalDate&lt;br/&gt;+ setLanguage(Language): void&lt;br/&gt;+ setGender(Gender): void&lt;br/&gt;+ getPassHash(): String&lt;br/&gt;+ setCardNumber(String): void&lt;br/&gt;+ setId(Long): void&lt;br/&gt;+ setLastName(String): void&lt;br/&gt;+ getCardNumber(): String&lt;/p&gt;" style="verticalAlign=top;align=left;overflow=fill;fontSize=14;fontFamily=Helvetica;html=1;rounded=0;shadow=0;comic=0;labelBackgroundColor=none;strokeWidth=1;" vertex="1" parent="1">
          <mxGeometry x="4802" y="-172" width="273" height="1042" as="geometry" />
        </mxCell>
        <mxCell id="gj-kkhx7KfFzgqiumkQl-27" value="" style="html=1;rounded=0;edgeStyle=orthogonalEdgeStyle;dashed=0;startArrow=circlePlus;startFill=0;endArrow=none;strokeColor=#820000;curved=0;" edge="1" parent="1" source="gj-kkhx7KfFzgqiumkQl-7" target="gj-kkhx7KfFzgqiumkQl-5">
          <mxGeometry width="50" height="50" relative="1" as="geometry">
            <Array as="points">
              <mxPoint x="3640" y="2140" />
              <mxPoint x="3640" y="2320" />
            </Array>
            <mxPoint x="3713" y="2254.4999999999995" as="sourcePoint" />
            <mxPoint x="3540" y="2430" as="targetPoint" />
          </mxGeometry>
        </mxCell>
        <mxCell id="gj-kkhx7KfFzgqiumkQl-28" value="" style="html=1;rounded=1;edgeStyle=orthogonalEdgeStyle;dashed=0;startArrow=circlePlus;startFill=0;endArrow=none;strokeColor=#820000;exitX=1.000;exitY=0.500;exitDx=0;exitDy=0;entryX=0.000;entryY=0.500;entryDx=0;entryDy=0;" edge="1" parent="1" source="gj-kkhx7KfFzgqiumkQl-8" target="gj-kkhx7KfFzgqiumkQl-26">
          <mxGeometry width="50" height="50" relative="1" as="geometry">
            <Array as="points">
              <mxPoint x="4777" y="53" />
              <mxPoint x="4777" y="339" />
            </Array>
          </mxGeometry>
        </mxCell>
        <mxCell id="gj-kkhx7KfFzgqiumkQl-29" value="" style="html=1;rounded=1;edgeStyle=orthogonalEdgeStyle;dashed=0;startArrow=circlePlus;startFill=0;endArrow=none;strokeColor=#820000;exitX=1.000;exitY=0.500;exitDx=0;exitDy=0;entryX=0.000;entryY=0.500;entryDx=0;entryDy=0;" edge="1" parent="1" source="gj-kkhx7KfFzgqiumkQl-9" target="gj-kkhx7KfFzgqiumkQl-26">
          <mxGeometry width="50" height="50" relative="1" as="geometry">
            <Array as="points">
              <mxPoint x="4777" y="435" />
              <mxPoint x="4777" y="339" />
            </Array>
          </mxGeometry>
        </mxCell>
        <mxCell id="gj-kkhx7KfFzgqiumkQl-30" value="" style="html=1;rounded=1;edgeStyle=orthogonalEdgeStyle;dashed=0;startArrow=circlePlus;startFill=0;endArrow=none;strokeColor=#820000;exitX=1.000;exitY=0.500;exitDx=0;exitDy=0;entryX=0.000;entryY=0.500;entryDx=0;entryDy=0;" edge="1" parent="1" source="gj-kkhx7KfFzgqiumkQl-16" target="gj-kkhx7KfFzgqiumkQl-26">
          <mxGeometry width="50" height="50" relative="1" as="geometry">
            <Array as="points">
              <mxPoint x="4777" y="244" />
              <mxPoint x="4777" y="339" />
            </Array>
          </mxGeometry>
        </mxCell>
        <mxCell id="gj-kkhx7KfFzgqiumkQl-31" value="" style="html=1;rounded=1;edgeStyle=orthogonalEdgeStyle;dashed=0;startArrow=circlePlus;startFill=0;endArrow=none;strokeColor=#820000;exitX=1.000;exitY=0.500;exitDx=0;exitDy=0;entryX=0.000;entryY=0.500;entryDx=0;entryDy=0;" edge="1" parent="1" source="gj-kkhx7KfFzgqiumkQl-18" target="gj-kkhx7KfFzgqiumkQl-10">
          <mxGeometry width="50" height="50" relative="1" as="geometry">
            <Array as="points" />
          </mxGeometry>
        </mxCell>
        <mxCell id="gj-kkhx7KfFzgqiumkQl-32" value="" style="html=1;rounded=1;edgeStyle=orthogonalEdgeStyle;dashed=0;startArrow=circlePlus;startFill=0;endArrow=none;strokeColor=#820000;exitX=1.000;exitY=0.500;exitDx=0;exitDy=0;entryX=0.000;entryY=0.500;entryDx=0;entryDy=0;" edge="1" parent="1" source="gj-kkhx7KfFzgqiumkQl-19" target="gj-kkhx7KfFzgqiumkQl-26">
          <mxGeometry width="50" height="50" relative="1" as="geometry">
            <Array as="points">
              <mxPoint x="4777" y="649" />
              <mxPoint x="4777" y="339" />
            </Array>
          </mxGeometry>
        </mxCell>
        <mxCell id="gj-kkhx7KfFzgqiumkQl-33" value="" style="html=1;rounded=1;edgeStyle=orthogonalEdgeStyle;dashed=0;startArrow=circlePlus;startFill=0;endArrow=none;strokeColor=#820000;exitX=1.000;exitY=0.500;exitDx=0;exitDy=0;entryX=0.000;entryY=0.500;entryDx=0;entryDy=0;" edge="1" parent="1" source="gj-kkhx7KfFzgqiumkQl-21" target="gj-kkhx7KfFzgqiumkQl-20">
          <mxGeometry width="50" height="50" relative="1" as="geometry">
            <Array as="points" />
          </mxGeometry>
        </mxCell>
        <mxCell id="gj-kkhx7KfFzgqiumkQl-34" value="0..n" style="endArrow=open;html=1;endSize=12;startArrow=diamondThin;startSize=14;startFill=0;edgeStyle=orthogonalEdgeStyle;align=left;verticalAlign=bottom;rounded=0;exitX=1.003;exitY=0.345;exitDx=0;exitDy=0;exitPerimeter=0;" edge="1" parent="1" source="gj-kkhx7KfFzgqiumkQl-5" target="gj-kkhx7KfFzgqiumkQl-6">
          <mxGeometry x="-0.7997" y="-1" relative="1" as="geometry">
            <mxPoint x="3460" y="2520" as="sourcePoint" />
            <mxPoint x="3620" y="2520" as="targetPoint" />
            <Array as="points">
              <mxPoint x="3640" y="2339" />
              <mxPoint x="3640" y="2470" />
            </Array>
            <mxPoint as="offset" />
          </mxGeometry>
        </mxCell>
      </root>
    </mxGraphModel>
  </diagram>
</mxfile>
